<?xml version="1.0" standalone="no"?>
<!DOCTYPE svg PUBLIC "-//W3C//DTD SVG 1.1//EN" "http://www.w3.org/Graphics/SVG/1.1/DTD/svg11.dtd" >
<svg xmlns="http://www.w3.org/2000/svg" xmlns:xlink="http://www.w3.org/1999/xlink" version="1.1">
<metadata>
Created by FontForge 20161013 at Wed Nov 19 18:15:10 2014
 By ,,,
</metadata>
<defs>
<font id="Pe-icon-7-stroke" horiz-adv-x="512" >
  <font-face 
    font-family="Pe-icon-7-stroke"
    font-weight="400"
    font-stretch="normal"
    units-per-em="512"
    panose-1="0 0 0 0 0 0 0 0 0 0"
    ascent="480"
    descent="-32"
    bbox="-0.2 -32 513 480"
    underline-thickness="0"
    underline-position="0"
    unicode-range="U+0001-FFFD"
  />
<missing-glyph horiz-adv-x="0" 
 />
    <glyph glyph-name=".notdef" unicode="&#xfffd;" horiz-adv-x="0" 
 />
    <glyph glyph-name="glyph1" horiz-adv-x="0" 
d="M0 0v0v0v0z" />
    <glyph glyph-name="glyph1" horiz-adv-x="0" 
d="M0 0v0v0v0z" />
    <glyph glyph-name="nonmarkingreturn" horiz-adv-x="170" 
 />
    <glyph glyph-name="uni0001" horiz-adv-x="0" 
d="M0 0v0v0v0z" />
    <glyph glyph-name="space" unicode=" " horiz-adv-x="256" 
d="M0 0v0v0v0z" />
    <glyph glyph-name="uniE600" unicode="&#xe600;" 
d="M448 343h-56v47q0 8 -3 15t-8 12q-5 6 -12 9t-15 3h-264q-8 0 -15 -3t-12 -9q-6 -5 -9 -12t-3 -15v-358q0 -5 4 -9t9 -4h384q5 0 9 4t4 9v299q0 5 -4 8.5t-9 3.5v0zM90 412h264q4 0 8 -2t7 -5t4.5 -6.5t1.5 -8.5v-47h-307v47q0 5 2 8.5t5 6.5t6.5 5t8.5 2v0zM444 36h-376
v290h376v-290v0zM324 181q0 -8 3.5 -16t9.5 -14t13.5 -9t16.5 -3t16.5 3t13.5 9t9.5 14t3.5 16q0 9 -3.5 17t-9.5 13q-6 6 -13.5 9.5t-16.5 3.5t-16.5 -3.5t-13.5 -8.5q-6 -6 -9.5 -14t-3.5 -17v0zM392 181q0 -5 -2 -9.5t-5 -8.5q-3 -3 -8 -5t-10 -2t-10 2t-8 5q-4 4 -6 8.5
t-2 9.5q0 6 2 10.5t6 7.5q3 4 8 6t10 2t10 -2t8 -6q3 -3 5 -7.5t2 -10.5v0z" />
    <glyph glyph-name="uniE601" unicode="&#xe601;" 
d="M179 267v-86h70l58 -58v202l-58 -58h-70v0zM261 255l29 28v-118l-34 33h-60v52h60l5 5v0zM256 437q-44 0 -83 -16.5t-68 -45.5t-45.5 -68t-16.5 -83t16.5 -83t45.5 -68t68 -45.5t83 -16.5t83 16.5t68 45.5t45.5 68t16.5 83t-16.5 83t-45.5 68t-68 45.5t-83 16.5v0z
M256 28q-41 0 -76.5 15.5t-62.5 41.5q-26 27 -41.5 62.5t-15.5 76.5t15.5 76.5t41.5 62.5q27 26 62.5 41.5t76.5 15.5t76.5 -15.5t62.5 -41.5q26 -27 41.5 -62.5t15.5 -76.5t-15.5 -76.5t-41.5 -62.5q-27 -26 -62.5 -41.5t-76.5 -15.5v0z" />
    <glyph glyph-name="uniE602" unicode="&#xe602;" 
d="M179 267v-86h70l58 -58v202l-58 -58h-70v0zM261 255l29 28v-118l-34 33h-60v52h60l5 5v0zM427 351l-14 -10q9 -12 16.5 -25.5t12.5 -28.5t7.5 -31t2.5 -32t-2.5 -32t-7.5 -31t-12.5 -28.5t-16.5 -25.5l14 -10q10 13 18 28t13 31q6 16 8.5 33t2.5 35t-2.5 35t-8.5 33
q-5 16 -13 31t-18 28v0zM386 127q7 10 13 21.5t10 23.5q5 12 7 25t2 27t-2 27t-7 25q-4 12 -10 23.5t-13 21.5l-14 -11q7 -9 12.5 -19t8.5 -21q4 -11 6 -22.5t2 -23.5t-2 -23.5t-6 -22.5q-3 -11 -8.5 -21t-12.5 -19l14 -11v0zM345 158q5 7 9 14.5t7 16.5q3 8 4.5 17t1.5 18
t-1.5 18t-4.5 17q-3 9 -7 16.5t-9 14.5l-14 -10q5 -6 8 -12.5t6 -13.5q2 -7 3.5 -14.5t1.5 -15.5t-1.5 -15.5t-3.5 -14.5q-3 -7 -6 -13.5t-8 -12.5l14 -10v0zM256 28q-41 0 -76.5 15.5t-62.5 41.5q-26 27 -41.5 62.5t-15.5 76.5t15.5 76.5t41.5 62.5q27 26 62.5 41.5
t76.5 15.5q20 0 39 -4t37 -11q18 -8 33.5 -18.5t28.5 -23.5l12 12q-14 14 -31 26t-36 20t-40 12t-43 4q-44 0 -83 -16.5t-68 -45.5t-45.5 -68t-16.5 -83t16.5 -83t45.5 -68t68 -45.5t83 -16.5q22 0 43 4t40 12t36 20t31 26l-12 12q-13 -13 -28.5 -23.5t-33.5 -18.5
q-18 -7 -37 -11t-39 -4v0z" />
    <glyph glyph-name="uniE603" unicode="&#xe603;" 
d="M397 339q-24 0 -45 -9t-37 -25q-15 -15 -24 -36t-9 -45q0 -16 4 -30t11 -27t17 -23.5t23 -17.5h-162q13 7 23 17.5t17 23.5t11 27t4 30q0 24 -9 45t-24 36q-16 16 -37 25t-45 9t-45 -9t-36 -25q-16 -15 -25 -36t-9 -45t9 -45t25 -36q15 -16 36 -25t45 -9h282q24 0 45 9
t36 25q16 15 25 36t9 45t-9 45t-25 36q-15 16 -36 25t-45 9v0zM17 224q0 20 8 38t21 31q13 14 31 21.5t38 7.5q21 0 38.5 -7.5t31.5 -21.5q13 -13 20.5 -31t7.5 -38t-7.5 -38t-20.5 -31q-14 -14 -31.5 -21.5t-38.5 -7.5q-20 0 -38 7.5t-31 21.5q-13 13 -21 31t-8 38v0z
M397 126q-21 0 -38.5 7.5t-31.5 21.5q-13 13 -20.5 31t-7.5 38t7.5 38t20.5 31q14 14 31.5 21.5t38.5 7.5q20 0 38 -7.5t31 -21.5q13 -13 21 -31t8 -38t-8 -38t-21 -31q-13 -14 -31 -21.5t-38 -7.5v0z" />
    <glyph glyph-name="uniE604" unicode="&#xe604;" 
d="M451 335l-110 -66v74q0 6 -2 10.5t-5 8.5q-4 3 -8.5 5t-9.5 2h-273q-6 0 -10.5 -2t-7.5 -5q-4 -4 -6 -8.5t-2 -10.5v-238q0 -6 2 -10.5t6 -8.5q3 -3 7.5 -5t10.5 -2h273q5 0 9.5 2t8.5 5q3 4 5 8.5t2 10.5v75l112 -67h42v222h-44v0zM324 105q0 -4 -2.5 -6.5t-5.5 -2.5
h-273q-4 0 -6.5 2.5t-2.5 6.5v238q0 4 2.5 6.5t6.5 2.5h273q3 0 5.5 -2.5t2.5 -6.5v-238v0zM478 130h-20l-117 70v49l115 69h22v-188v0z" />
    <glyph glyph-name="uniE605" unicode="&#xe605;" 
d="M256 429q-42 0 -79.5 -16t-65.5 -44t-44 -65.5t-16 -79.5t16 -79.5t44 -65.5t65.5 -44t79.5 -16t79.5 16t65.5 44t44 65.5t16 79.5t-16 79.5t-44 65.5t-65.5 44t-79.5 16v0zM256 412q39 0 73 -15t60 -40q25 -26 40 -60t15 -73q0 -17 -3 -33.5t-9 -31.5q-5 -15 -13.5 -29
t-18.5 -26q-7 3 -18 7t-24 9q-12 4 -25 8t-23 7q-2 1 -2.5 2.5t-0.5 8.5q0 6 2 12t5 11q2 5 5 14t4 17q3 4 7 11.5t6 20.5q3 12 2.5 17.5t-2.5 10.5l-0.5 0.5l-0.5 0.5q0 3 0.5 15t2.5 24q2 7 -1 21.5t-13 28.5l-9 9t-12 8q-7 4 -16 7t-21 4h-17q-12 -1 -21 -4t-16 -7
q-7 -3 -12 -8t-8 -9q-11 -14 -13.5 -28.5t-1.5 -21.5q2 -12 3 -24t0 -15v-0.5t-1 -0.5q-1 -5 -1.5 -10.5t1.5 -17.5q3 -13 6.5 -20.5t6.5 -11.5q1 -8 4 -17t5 -14q2 -4 3 -10t1 -13q0 -8 -0.5 -9t-1.5 -2q-11 -3 -24 -7.5t-26 -8.5q-12 -5 -23 -9t-17 -7q-11 12 -19 26
t-14 30q-6 15 -9 31.5t-3 33.5q0 39 15 73t40 60q26 25 60 40t73 15v0zM125 90q7 3 17.5 6.5t21.5 7.5t22.5 8t21.5 7q11 3 12.5 11t1.5 16q0 6 -0.5 14t-4.5 16q-3 5 -5 13t-3 16q0 1 -1 2.5t-2 2.5q-2 2 -5 8t-5 18q-2 9 -2 12t1 5q1 1 1 2v2q2 5 1 20t-3 26q-1 4 1 15
t10 22q4 4 8.5 8t10.5 6q5 3 11.5 4.5t13.5 2.5h16q8 -1 14.5 -2.5t12.5 -4.5q5 -2 10 -6t8 -8q9 -11 10.5 -22t1.5 -15q-2 -11 -3.5 -26t0.5 -20q0 -1 0.5 -2t0.5 -2q1 -2 1.5 -5t-1.5 -12q-3 -12 -6 -18t-5 -8q-1 -1 -2 -2.5t-1 -2.5q0 -8 -2.5 -16t-5.5 -13
q-2 -6 -5 -13.5t-3 -16.5q0 -7 2 -15t13 -12q9 -3 20.5 -6.5t22.5 -7.5t21.5 -7.5t18.5 -6.5q-13 -13 -28 -23t-31 -17q-17 -7 -35.5 -11t-37.5 -4t-37 4t-35 11t-31.5 16.5t-27.5 22.5v0z" />
    <glyph glyph-name="uniE606" unicode="&#xe606;" 
d="M331 180l12 12l-87 87l-87 -87l12 -12l66 66v-270h18v270zM213 61v18h-111v290h308v-290h-111v-18h128v325h-342v-325h128z" />
    <glyph glyph-name="uniE607" unicode="&#xe607;" 
d="M375 233h-213v102q0 19 7.5 36t20.5 30q12 13 29.5 20.5t36.5 7.5t36.5 -7.5t29.5 -20.5q13 -13 20.5 -30t7.5 -36v-34h17v34q0 23 -9 43t-24 35t-35 24t-43 9t-43 -9t-35 -24t-24 -35t-9 -43v-102h-60v-231h342v231h-52v0zM410 19h-308v196h308v-196v0z" />
    <glyph glyph-name="uniE608" unicode="&#xe608;" 
d="M265 437v26h-18v-26q-51 -2 -96 -22.5t-79 -54.5q-33 -35 -52.5 -80.5t-19.5 -96.5q0 -7 0.5 -14t1.5 -14l17 1q0 11 4.5 20t11.5 16t16.5 11t19.5 4q11 0 21 -4t17 -12q7 -7 11 -16.5t4 -20.5h18q0 11 4 20.5t11 16.5q7 8 17 12t21 4q10 0 19.5 -4t17.5 -11
q7 -7 11 -16.5t4 -20.5v-132q0 -8 3 -15t9 -12q5 -5 11.5 -8t14.5 -3t15 3t12 8t8 12t3 15h-17q0 -9 -6 -15t-15 -6q-8 0 -14 6t-6 15v131v0q0 11 4 20.5t11 16.5q7 8 17 12t21 4t20.5 -4t16.5 -12q7 -7 11.5 -16.5t4.5 -20.5h17q0 11 4 20.5t11 16.5q7 8 17 12t21 4
q10 0 19.5 -4t16.5 -11t11.5 -16t4.5 -20h17q1 7 1.5 13.5t0.5 13.5q0 51 -19.5 96.5t-52.5 80.5q-34 34 -79 54.5t-96 22.5v0zM441 224q-10 0 -19.5 -2.5t-17.5 -7.5t-14 -11.5t-11 -15.5q-4 9 -10.5 15.5t-14.5 11.5t-17.5 7.5t-18.5 2.5q-10 0 -19.5 -2.5t-17.5 -7.5
t-14 -11.5t-11 -15.5q-4 9 -10.5 15.5t-14.5 11.5t-17.5 7.5t-18.5 2.5q-10 0 -19.5 -2.5t-17.5 -7.5t-14.5 -11.5t-10.5 -15.5q-4 9 -10.5 15.5t-14.5 11.5t-17.5 7.5t-19.5 2.5q-8 0 -15.5 -2t-14.5 -5t-12.5 -7.5t-10.5 -10.5q3 46 23 86.5t52 70.5t74 47t89 17t89 -17
t74 -47t52 -70.5t23 -86.5q-5 6 -10.5 10.5t-12.5 7.5t-14.5 5t-15.5 2v0z" />
    <glyph glyph-name="uniE609" unicode="&#xe609;" 
d="M418 386h-85v17q0 7 -3 13.5t-7 10.5q-5 5 -11 7.5t-13 2.5h-86q-7 0 -13 -2.5t-11 -7.5q-4 -4 -7 -10.5t-3 -13.5v-17h-85v-17h18l17 -324q0 -7 2.5 -13.5t7.5 -10.5q4 -5 10.5 -7.5t13.5 -2.5h187q7 0 13.5 2.5t10.5 7.5q5 4 7.5 10.5t2.5 13.5l17 324h17v17v0z
M196 403q0 7 5 12t12 5h86q7 0 12 -5t5 -12v-17h-120v17v0zM367 46v-1v0q0 -7 -5 -12t-12 -5h-187q-7 0 -12 5t-5 12v0v1l-17 323h255l-17 -323v0zM247 335h18v-273h-18v273v0zM214 62l-18 273l-17 -1l18 -273zM333 334l-17 1l-17 -273l17 -1z" />
    <glyph glyph-name="uniE60A" unicode="&#xe60a;" 
d="M473 68l-91 90l12 12l-12 12l-36 -36l-60 61l72 72q7 -2 14.5 -3.5t15.5 -1.5q9 0 17.5 1.5t16.5 5.5q8 3 15.5 8t13.5 11q10 10 16.5 22t8.5 25q3 12 1.5 25.5t-7.5 26.5l-5 11l-39 -38l-31 -1l1 30l39 40l-11 5q-5 1 -9 2.5t-9 2.5q-4 1 -8.5 1.5t-9.5 0.5
q-9 0 -17.5 -1.5t-16.5 -5.5q-8 -3 -15.5 -8t-13.5 -11q-10 -10 -16 -21t-8 -23q-3 -12 -2.5 -24.5t5.5 -25.5l-73 -72l-102 102l12 12l-67 67l-36 -36l67 -67l12 12l102 -102l-72 -73q-8 3 -15.5 4.5t-14.5 1.5q-9 0 -18 -2t-17 -5q-8 -4 -15 -8.5t-14 -11.5
q-10 -9 -16 -21t-8 -25q-3 -13 -1.5 -26.5t6.5 -26.5l5 -11l40 40h30v-31l-39 -39l11 -5q4 -2 8.5 -3.5t9.5 -2.5q4 -1 8.5 -1.5t9.5 -0.5q9 0 17.5 2t16.5 5q8 4 15.5 8.5t13.5 11.5q9 9 15 20t9 23q3 13 2 25.5t-5 24.5l72 73l61 -61l-36 -36l12 -12l12 12l90 -90
q3 -3 6.5 -5.5t7.5 -4.5l8 -2t8 -1q5 0 9 1l8 2q4 2 7.5 4.5t6.5 5.5q6 6 9 13.5t3 16.5q0 8 -3 16t-9 14v0zM62 406l12 12l43 -43l-12 -12l-43 43v0zM183 121q5 -11 6 -21.5t-1 -21.5q-2 -10 -7 -19.5t-13 -17.5q-5 -5 -11 -9t-13 -7q-6 -3 -13 -4t-14 -1h-8.5t-8.5 1
l25 25l1 56h-54l-26 -26q-2 9 -2 18t3 18q2 8 7 16.5t11 14.5q5 5 11 9t13 7q6 3 13 4t15 1q7 0 14.5 -1.5t13.5 -3.5l6 -3l173 173l-2 6q-5 10 -6 21t1 21q2 11 7 20.5t13 17.5q5 5 11 9t12 6q7 3 14 4.5t14 1.5q4 0 8 -0.5t8 -1.5l-25 -26l-1 -54l56 1l25 25
q2 -9 1.5 -18.5t-2.5 -17.5q-3 -9 -7.5 -17t-11.5 -15q-5 -5 -11 -9t-12 -7q-7 -2 -14 -3.5t-14 -1.5t-14.5 1.5t-14.5 4.5l-5 2l-173 -173l2 -5v0zM460 20q-3 -4 -8 -6t-10 -2t-9.5 2t-8.5 6l-90 90l36 36l90 -90q4 -4 6 -8.5t2 -9.5t-2 -10t-6 -8v0z" />
    <glyph glyph-name="uniE60B" unicode="&#xe60b;" 
d="M235 209l0.5 -0.5l0.5 -0.5q4 -4 9 -7t11 -3q5 0 10 2t8 6q4 3 6 8t2 10q0 6 -2.5 10.5t-6.5 8.5l-0.5 1t-1.5 1l-104 79q-2 2 -5 2t-5 -2q-3 -2 -3.5 -5.5t1.5 -6.5l80 -103v0zM256 437h-4h-4v-9h-1v-93h18v85q39 -2 73 -18t59 -42q26 -27 40.5 -62t14.5 -74
q0 -41 -15.5 -76.5t-41.5 -62.5q-27 -26 -62.5 -41.5t-76.5 -15.5t-76.5 15.5t-62.5 41.5q-26 27 -41.5 62.5t-15.5 76.5q0 20 4 39.5t11 36.5q8 18 18.5 33.5t23.5 29.5l-12 12q-14 -15 -25.5 -32t-19.5 -36q-9 -19 -13 -40t-4 -43q0 -44 16.5 -83t45.5 -68t68 -45.5
t83 -16.5t83 16.5t68 45.5t45.5 68t16.5 83t-16.5 83t-45.5 68t-68 45.5t-83 16.5v0z" />
    <glyph glyph-name="uniE60C" unicode="&#xe60c;" 
d="M397 454h-113l-258 -257l202 -203l258 257v114l-89 89v0zM469 258l-241 -240l-178 179l241 240h98l80 -79v-100v0zM350 352q0 -7 2.5 -13t7.5 -11t11 -7.5t13 -2.5t13 2.5t11 7.5t7.5 11t2.5 13t-2.5 13t-7.5 11t-11 7.5t-13 2.5t-13 -2.5t-11 -7.5t-7.5 -11t-2.5 -13v0z
M401 352q0 -7 -5 -12t-12 -5t-12 5t-5 12t5 12t12 5t12 -5t5 -12v0z" />
    <glyph glyph-name="uniE60D" unicode="&#xe60d;" 
d="M257 295q-14 0 -26.5 -5.5t-21.5 -14.5q-10 -9 -15 -21.5t-5 -26.5t5 -26.5t15 -22.5q9 -9 21.5 -14.5t26.5 -5.5t26.5 5.5t21.5 14.5q9 10 14.5 22.5t5.5 26.5t-5.5 26.5t-14.5 21.5t-21.5 14.5t-26.5 5.5v0zM257 175q-11 0 -20 4.5t-16 10.5q-7 7 -11 16.5t-4 20.5
q0 10 4 19.5t11 16.5t16 11t20 4q10 0 19.5 -4t16.5 -11t11 -16.5t4 -19.5q0 -11 -4 -20.5t-11 -16.5q-7 -6 -16.5 -10.5t-19.5 -4.5v0zM257 363q-28 0 -53 -10.5t-44 -29.5q-18 -18 -29 -43t-11 -53q0 -29 11 -53.5t29 -43.5q19 -18 44 -29t53 -11t53 11t43 29
q19 19 29.5 43.5t10.5 53.5q0 28 -10.5 53t-29.5 43q-18 19 -43 29.5t-53 10.5v0zM257 107q-25 0 -46.5 9.5t-38.5 25.5q-16 16 -25.5 38t-9.5 47q0 24 9.5 46t25.5 38q17 16 38.5 25.5t46.5 9.5t46.5 -9.5t37.5 -25.5q17 -16 26 -38t9 -46q0 -25 -9 -47t-26 -38
q-16 -16 -37.5 -25.5t-46.5 -9.5v0zM461 227q0 42 -16 79.5t-44 64.5q-28 28 -65.5 44t-79.5 16t-79.5 -16t-65.5 -44q-28 -27 -44 -64.5t-16 -79.5q0 -24 5 -46t15 -41q9 -20 22.5 -37.5t29.5 -31.5l-35 -44l13 -10l35 43q13 -9 27 -16t29 -12t31 -7.5t33 -2.5t33 2.5
t31 7.5t28.5 12t26.5 16l35 -43l13 10l-34 44q16 14 29.5 31t22.5 37q10 20 15 42t5 46v0zM68 227q0 38 15 72.5t40 59.5q26 26 60 40.5t73 14.5t73 -14.5t60 -40.5q25 -25 40 -59.5t15 -72.5q0 -39 -15 -73t-40 -60q-26 -25 -60 -40t-73 -15t-73 15t-60 40q-25 26 -40 60
t-15 73v0z" />
    <glyph glyph-name="uniE60E" unicode="&#xe60e;" 
d="M256 352q-27 0 -50 -10t-40 -28q-18 -17 -28 -40.5t-10 -49.5q0 -27 10 -50t28 -41q17 -17 40 -27t50 -10q26 0 49.5 10t40.5 27q18 18 28 41t10 50q0 26 -10 49.5t-28 40.5q-17 18 -40.5 28t-49.5 10v0zM256 113q-23 0 -43 8.5t-35 24.5q-15 15 -24 35t-9 43t9 43t24 35
t35 24t43 9t43 -9t35 -24t24 -35t9 -43t-9 -43t-24 -35q-15 -16 -35 -24.5t-43 -8.5v0zM248 480h17v-103h-17v103v0zM248 70h17v-102h-17v102v0zM0 233h102v-18h-102v18v0zM410 233h102v-18h-102v18v0zM431 412l12 -13l-71 -71l-12 12l71 72v0zM81 38l-12 12l71 71l12 -12
l-71 -71v0zM81 412l71 -72l-12 -12l-71 71l12 13v0zM431 38l-71 71l12 12l71 -71l-12 -12v0z" />
    <glyph glyph-name="uniE60F" unicode="&#xe60f;" 
d="M504 301l-248 120l-248 -120l35 -21v-184h17v174l51 -31v-212h290v212l103 62v0zM256 402l212 -103l-212 -128l-212 128l212 103v0zM384 44h-256v185l128 -78l128 78v-185v0z" />
    <glyph glyph-name="uniE610" unicode="&#xe610;" 
d="M401 340l14 14l15 -15l18 18l-42 42l-18 -18l15 -15l-14 -14q-12 11 -26 19.5t-29 15.5t-31.5 11t-33.5 5v34h-26v-34q-38 -3 -71.5 -19t-58.5 -43q-25 -26 -39 -60.5t-14 -73.5q0 -41 15.5 -76.5t41.5 -62.5q27 -26 62.5 -41.5t76.5 -15.5t76.5 15.5t62.5 41.5
q26 27 41.5 62.5t15.5 76.5q0 19 -3.5 37.5t-10.5 34.5q-6 17 -15.5 32t-21.5 29v0zM256 28q-37 0 -69.5 14t-57.5 38q-24 25 -38 57.5t-14 69.5t14 69.5t38 57.5q25 24 57.5 38t69.5 14t69.5 -14t57.5 -38q24 -25 38 -57.5t14 -69.5t-14 -69.5t-38 -57.5q-25 -24 -57.5 -38
t-69.5 -14v0zM265 231v112h-18v-112q-7 -3 -12 -9.5t-5 -14.5t5 -14.5t12 -9.5v-36h18v36q7 3 12 9.5t5 14.5t-5 14.5t-12 9.5v0z" />
    <glyph glyph-name="uniE611" unicode="&#xe611;" 
d="M310 275l-54 167l-54 -167h-176l142 -102l-54 -167l142 104l142 -104l-54 167l142 102h-176v0zM327 167l39 -116l-110 80l-110 -80l43 128l-11 8l-99 71h135l42 128l42 -128h135l-110 -79l4 -12v0z" />
    <glyph glyph-name="uniE612" unicode="&#xe612;" 
d="M0 283v-119h51v-103h17v103h131l125 -101v324l-126 -104h-198v0zM17 181v85h68v-85h-68v0zM209 270l98 81v-253l-102 83h-103v85h102l5 4v0zM442 371l-12 -12q15 -12 27 -26.5t20 -31.5q9 -18 13.5 -37t4.5 -39q0 -21 -5 -40.5t-14 -37.5q-9 -17 -21.5 -32t-28.5 -27
l13 -12q16 13 30 29t23 35q10 19 15 40.5t5 44.5q0 22 -5 43t-14 39q-9 19 -22 35t-29 29v0zM387 316l-12 -12q9 -6 17.5 -14.5t13.5 -18.5q6 -10 9 -22t3 -24q0 -13 -3 -25t-10 -23q-6 -10 -14.5 -19t-19.5 -15l12 -12q12 7 21.5 17t16.5 22t11 26t4 29q0 14 -3.5 27.5
t-10.5 24.5q-6 12 -15 22t-20 17v0z" />
    <glyph glyph-name="uniE613" unicode="&#xe613;" 
d="M256 186q-15 0 -27 -5.5t-22 -14.5q-9 -10 -14.5 -22.5t-5.5 -26.5t5.5 -26.5t14.5 -21.5q10 -9 22 -14.5t27 -5.5q14 0 26 5.5t22 14.5q9 9 14.5 21.5t5.5 26.5t-5.5 26.5t-14.5 22.5q-10 9 -22 14.5t-26 5.5v0zM256 66q-11 0 -20.5 4t-16.5 11t-11 16.5t-4 19.5
q0 11 4 20.5t11 16.5q7 6 16.5 10.5t20.5 4.5q10 0 19.5 -4.5t16.5 -10.5q7 -7 11 -16.5t4 -20.5q0 -10 -4 -19.5t-11 -16.5t-16.5 -11t-19.5 -4v0zM256 262q-22 0 -42 -6t-37 -17t-30 -26t-22 -33l13 -13q7 17 19 31.5t27 24.5q15 11 33.5 16.5t38.5 5.5q19 0 37.5 -5.5
t33.5 -16.5q15 -10 27 -24.5t19 -31.5l13 13q-9 18 -22 33t-30 26t-37 17t-41 6v0zM256 399q-35 0 -68.5 -8.5t-62.5 -24.5q-30 -16 -55 -38t-44 -49l12 -12q18 26 41.5 47t51.5 36t59.5 23.5t65.5 8.5t65.5 -8.5t59.5 -22.5q28 -15 51.5 -36.5t41.5 -47.5l12 13
q-19 27 -44 49t-54 37q-30 16 -63 24.5t-69 8.5v0zM256 331q-28 0 -55 -7.5t-50 -20.5t-42.5 -32t-33.5 -41l13 -13q12 22 30 39.5t40 30.5t46.5 20t51.5 7t52 -7t46 -20q22 -12 40 -29.5t31 -39.5l12 13q-14 22 -33.5 40.5t-42.5 31.5t-49.5 20.5t-55.5 7.5v0z" />
    <glyph glyph-name="uniE614" unicode="&#xe614;" 
d="M381 177l56 -55h-101l-208 221h-86v-17h79l208 -221h108l-56 -56l12 -12l77 76l-77 77zM121 122h-79v-17h86l83 87l-13 12zM336 326h101l-56 -55l12 -13l77 77l-77 76l-12 -12l56 -56h-108l-83 -88l12 -12z" />
    <glyph glyph-name="uniE615" unicode="&#xe615;" 
d="M51 429v-410h410v410h-410v0zM444 36h-376v376h376v-376v0zM145 267q0 -23 9 -43.5t24 -35.5t35 -23.5t43 -8.5t43 8.5t35 23.5t24 35.5t9 43.5v59h17v17h-51v-17h17v-59q0 -20 -7.5 -37t-20.5 -30q-12 -12 -29.5 -19.5t-36.5 -7.5t-36.5 7.5t-29.5 19.5q-13 13 -20.5 30
t-7.5 37v59h17v17h-51v-17h17v-59v0z" />
    <glyph glyph-name="uniE616" unicode="&#xe616;" 
d="M418 446q-14 0 -26.5 -5.5t-21.5 -14.5t-14.5 -21.5t-5.5 -26.5q0 -5 0.5 -10t2.5 -9l-200 -84q-4 8 -10.5 14t-13.5 11q-8 4 -17 6.5t-18 2.5q-14 0 -26.5 -5t-21.5 -15q-10 -9 -15 -21.5t-5 -26.5t5 -26.5t15 -21.5q9 -9 21.5 -14.5t26.5 -5.5q7 0 14 1.5t14 4.5
q6 3 11.5 7t10.5 9l128 -93q-1 -3 -2.5 -7t-2.5 -8t-1.5 -8t-0.5 -9q0 -14 5 -26.5t15 -21.5q9 -9 21.5 -14.5t26.5 -5.5t26.5 5.5t21.5 14.5t14.5 21.5t5.5 26.5q0 15 -5.5 27t-14.5 22q-9 9 -21.5 14.5t-26.5 5.5q-8 0 -15 -1.5t-13 -4.5q-7 -3 -12.5 -7.5t-10.5 -9.5
l-128 92q2 4 3.5 8t2.5 8t1.5 8.5t0.5 8.5q0 5 -0.5 9.5t-1.5 8.5l199 84q5 -8 11 -14t14 -10q7 -5 16 -7.5t18 -2.5q14 0 26.5 5.5t21.5 14.5q10 10 15 22t5 27q0 14 -5 26.5t-15 21.5q-9 9 -21.5 14.5t-26.5 5.5v0zM333 122q10 0 19.5 -4t16.5 -11t11 -16.5t4 -20.5
q0 -10 -4 -19.5t-11 -16.5t-16.5 -11t-19.5 -4q-11 0 -20 4t-16 11t-11 16.5t-4 19.5q0 11 4 20.5t11 16.5t16 11t20 4v0zM94 190q-11 0 -20 4t-16 11t-11 16t-4 20t4 20t11 16t16 11t20 4t20 -4t16 -11t11 -16t4 -20t-4 -20t-11 -16t-16 -11t-20 -4v0zM418 326q-11 0 -20 4
t-16 11t-11 16.5t-4 20.5q0 10 4 19.5t11 16.5t16 11t20 4t20 -4t16 -11t11 -16.5t4 -19.5q0 -11 -4 -20.5t-11 -16.5t-16 -11t-20 -4v0z" />
    <glyph glyph-name="uniE617" unicode="&#xe617;" 
d="M256 446q-41 0 -76.5 -7.5t-62.5 -20.5q-26 -12 -41.5 -29.5t-15.5 -36.5v-256q0 -19 15.5 -36.5t41.5 -29.5q27 -13 62.5 -20.5t76.5 -7.5t76.5 7.5t62.5 20.5q26 12 41.5 29.5t15.5 36.5v256q0 19 -15.5 36.5t-41.5 29.5q-27 13 -62.5 20.5t-76.5 7.5v0zM256 429
q40 0 72.5 -7t56.5 -18t37 -24.5t13 -27.5t-13 -27.5t-37 -24.5t-56.5 -18t-72.5 -7t-72.5 7t-56.5 18t-37 24.5t-13 27.5t13 27.5t37 24.5t56.5 18t72.5 7v0zM435 113v-17q0 -14 -13 -27.5t-37 -24.5t-56.5 -18t-72.5 -7t-72.5 7t-56.5 18t-37 24.5t-13 27.5v47
q11 -12 29.5 -22.5t41.5 -17.5t50.5 -11t57.5 -4t57.5 4t50.5 11t41.5 17.5t29.5 22.5v-30v0zM435 181q0 -13 -13 -27t-37 -25t-56.5 -17.5t-72.5 -6.5t-72.5 6.5t-56.5 17.5t-37 25t-13 27v47q11 -12 29.5 -22t41.5 -18q23 -7 50.5 -11t57.5 -4t57.5 4t50.5 11
q23 8 41.5 18t29.5 22v-47v0zM435 267q0 -14 -13 -27.5t-37 -24.5t-56.5 -18t-72.5 -7t-72.5 7t-56.5 18t-37 24.5t-13 27.5v47q11 -13 29.5 -23t41.5 -17q23 -8 50.5 -12t57.5 -4t57.5 4t50.5 12q23 7 41.5 17t29.5 23v-47v0z" />
    <glyph glyph-name="uniE618" unicode="&#xe618;" 
d="M457 44l-116 116q9 10 16 22t12 25t7.5 27.5t2.5 28.5q0 34 -13 63.5t-35 51.5t-51.5 34.5t-62.5 12.5q-34 0 -63.5 -12.5t-51.5 -34.5t-34.5 -51.5t-12.5 -63.5q0 -33 12.5 -62.5t34.5 -51.5t51.5 -35t63.5 -13q14 0 28.5 2.5t27.5 7.5t25 12t22 16l116 -116l21 21v0z
M72 263q0 30 11 56.5t31 46.5t46.5 31t56.5 11t56 -11t46 -31t31.5 -46.5t11.5 -56.5t-11.5 -56t-31.5 -46t-46 -31.5t-56 -11.5t-56.5 11.5t-46.5 31.5t-31 46t-11 56v0z" />
    <glyph glyph-name="uniE619" unicode="&#xe619;" 
d="M393 224q16 16 27 32t17 30t6.5 26.5t-5.5 22.5q-2 4 -6 8t-11 7q-6 3 -15 5t-21 2q-7 0 -14.5 -0.5t-15.5 -1.5l-16 -4t-17 -4q-6 20 -13.5 37t-15.5 29q-9 11 -19.5 17.5t-21.5 6.5t-21 -6t-18 -18q-9 -11 -16.5 -27.5t-13.5 -36.5q-8 2 -15 3.5t-14 2.5t-13.5 1.5
t-12.5 0.5q-13 0 -22 -2t-15 -5q-7 -3 -11 -7t-6 -8q-5 -8 -5.5 -17.5t2.5 -20.5t9.5 -23.5t17.5 -25.5q4 -6 9.5 -12t11.5 -12q-16 -16 -27 -32t-17 -30t-6.5 -26.5t5.5 -22.5q2 -4 6 -8t11 -7q6 -3 15 -5t22 -2q6 0 12.5 0.5t13.5 1.5t14 2.5t15 3.5q6 -20 13.5 -36.5
t16.5 -27.5q8 -12 18 -18t21 -6t21.5 6.5t19.5 17.5q8 12 15.5 29t13.5 37q9 -2 17 -4l16 -4q8 -1 15.5 -1.5t14.5 -0.5q12 0 21 2t15 5q7 3 11 7t6 8q6 10 5.5 22.5t-6.5 26.5t-17 30t-27 32v0zM385 340q5 0 10.5 -0.5t11.5 -1.5q5 -2 9.5 -5t7.5 -7q4 -7 3 -16.5t-7 -20.5
q-5 -12 -15 -25.5t-24 -27.5q-5 5 -10.5 9.5t-11.5 9.5q-5 5 -11.5 9.5t-12.5 9.5q-1 7 -1.5 14.5t-2.5 14.5l-2 14t-3 13q8 3 16 4.5t15 3.5q8 1 14.5 1.5t13.5 0.5v0zM291 166q-4 -3 -8.5 -5.5t-8.5 -4.5q-5 -3 -9 -5t-9 -5q-4 3 -8.5 5t-9.5 5q-4 2 -8.5 4.5t-8.5 5.5
q-5 3 -9.5 6t-8.5 5q-5 3 -9 6l-8 6q-1 5 -1 9v8q0 5 -0.5 9.5t-0.5 8.5t0.5 8.5t0.5 9.5v8.5t1 8.5l8 6t9 5q4 3 8.5 6t9.5 6q4 3 8.5 5.5t8.5 4.5q5 3 9.5 5t8.5 5q5 -3 9 -5t9 -5q4 -2 8.5 -4.5t8.5 -5.5q8 -4 14.5 -8.5t13.5 -9.5q0 -5 0.5 -10t0.5 -10v-10v-10v-10v-10
t-0.5 -10t-0.5 -10q-7 -5 -13.5 -9.5t-14.5 -8.5v0zM317 162l-2 -10t-1 -10q-1 -5 -2 -9.5t-2 -9.5q-4 2 -8.5 3.5t-8.5 3.5q-4 1 -8.5 3t-9.5 4q7 3 13 7t12 7q4 3 8.5 5.5t8.5 5.5v0zM237 137q-5 -2 -10.5 -4.5t-10.5 -4.5t-10.5 -4t-10.5 -3q-1 5 -2 10.5t-2 11.5l-2 12
t-1 12q5 -4 11.5 -8t12.5 -8q6 -3 12.5 -7t12.5 -7v0zM168 203q-7 5 -13 10.5t-12 10.5q6 5 12 10.5t13 10.5q0 -5 -0.5 -10.5t-0.5 -10.5t0.5 -10.5t0.5 -10.5v0zM188 281q0 6 1 12l2 12t2 11.5t2 10.5q5 -1 10.5 -3t10.5 -4t10.5 -4.5t10.5 -4.5q-6 -3 -12.5 -7t-12.5 -7
q-6 -4 -12.5 -8t-11.5 -8v0zM275 311q5 2 9.5 4t8.5 3q4 2 8.5 3.5t8.5 3.5q1 -5 2 -9.5t2 -9.5q0 -5 1 -10l2 -10q-4 3 -8.5 5.5t-8.5 5.5q-6 3 -12 7t-13 7v0zM337 251q4 -3 8.5 -6.5t8.5 -6.5l7.5 -7.5t7.5 -6.5q-4 -3 -7.5 -6.5l-7.5 -7.5q-4 -3 -8.5 -6.5t-8.5 -6.5
v13.5v13.5v13.5v13.5v0zM252 420q8 0 15 -5.5t14 -15.5t13.5 -24.5t11.5 -32.5q-6 -2 -12 -4.5t-13 -5.5q-6 -2 -12.5 -5t-12.5 -6q-7 3 -14.5 6.5t-14.5 6.5t-14 5.5t-14 4.5q5 18 11.5 32t13.5 24t14 15t14 5v0zM88 326q3 4 7.5 7t10.5 5q5 1 10.5 1.5t11.5 0.5
q5 0 11 -0.5t13 -1.5q6 -1 13 -2.5t14 -3.5q-2 -7 -3.5 -15t-2.5 -16t-2 -16.5t-2 -16.5l-10 -8l-10 -8t-9.5 -8t-8.5 -8q-6 5 -11 11t-9 11q-9 11 -14.5 21t-8.5 19q-3 8 -3 15.5t3 12.5v0zM128 108q-6 0 -11.5 0.5t-10.5 1.5q-6 2 -10.5 5t-7.5 7q-3 7 -2.5 16t6.5 21
q5 12 15 25.5t24 27.5q4 -4 8.5 -8t9.5 -8l10 -8l10 -8q1 -8 2 -16.5t2 -16.5t2.5 -16t3.5 -15q-7 -2 -14 -3.5t-13 -2.5q-7 -1 -13 -1.5t-11 -0.5v0zM252 28q-7 0 -14 5t-14 15t-13.5 24t-11.5 32q7 2 14 4.5t14 5.5t14.5 6.5t14.5 6.5q6 -3 12.5 -6t12.5 -5q7 -3 13 -5.5
t12 -4.5q-5 -18 -11.5 -32.5t-13.5 -24.5t-14 -15.5t-15 -5.5v0zM424 122q-3 -4 -7.5 -7t-9.5 -5q-6 -1 -11.5 -1.5t-10.5 -0.5q-7 0 -13.5 0.5t-14.5 1.5q-7 2 -15 3.5t-16 4.5q2 6 3 13l2 14q2 7 2.5 14.5t1.5 14.5q6 5 12.5 9.5t11.5 9.5q6 5 11.5 9.5t10.5 9.5
q14 -14 24 -27.5t15 -25.5q6 -12 7 -21t-3 -16v0z" />
    <glyph glyph-name="uniE61A" unicode="&#xe61a;" 
d="M94 429v-410l162 120l162 -120v410h-324v0zM401 53l-145 107l-145 -107v359h290v-359v0zM171 326h170v-17h-170v17v0zM171 258h170v-17h-170v17v0z" />
    <glyph glyph-name="uniE61B" unicode="&#xe61b;" 
d="M435 113h-360l72 72l-12 12l-92 -92l92 -92l12 12l-71 71h376v153h-17v-136zM77 335h360l-72 -72l12 -12l92 92l-92 92l-12 -12l71 -71h-376v-154h17v137z" />
    <glyph glyph-name="uniE61C" unicode="&#xe61c;" 
d="M444 181q0 -38 -15 -72.5t-40 -59.5q-26 -26 -60 -40.5t-73 -14.5t-73 14.5t-60 40.5q-25 25 -40 59.5t-15 72.5q0 39 15 73t40 60q26 25 60 40t72 15v-85l162 94l-162 93v-85q-42 0 -79 -16t-65 -44t-44 -65t-16 -80q0 -42 16 -79.5t44 -64.5q28 -28 65.5 -44t79.5 -16
t79.5 16t65.5 44q28 27 44 64.5t16 79.5h-17v0zM272 442l111 -64l-111 -65v129v0z" />
    <glyph glyph-name="uniE61D" unicode="&#xe61d;" 
d="M418 250q0 1 0.5 2t0.5 2q0 27 -10.5 51t-28.5 42t-42 28.5t-52 10.5q-19 0 -37.5 -5.5t-33.5 -15.5t-27.5 -24t-20.5 -30q-7 3 -14.5 5t-15.5 2q-13 0 -24.5 -4.5t-20.5 -11.5q-9 -8 -15 -18.5t-8 -22.5q-15 -5 -27.5 -14.5t-21.5 -22.5q-10 -12 -15 -27.5t-5 -32.5
q0 -21 8 -39.5t22 -32.5t32.5 -22t39.5 -8h317q19 0 36 7.5t30 20.5q12 12 19.5 29.5t7.5 36.5t-7.5 36t-20.5 30q-12 13 -29 20.5t-37 7.5v0zM418 79h-3h-313q-17 0 -32.5 7t-27.5 18q-11 12 -18 27.5t-7 32.5q0 14 4.5 26.5t11.5 23.5q8 11 18.5 19t23.5 12l9 3l2 10
q2 10 6.5 17.5t11.5 13.5q6 6 14.5 9t18.5 3q6 0 11.5 -1.5t10.5 -4.5l16 -7l7 15q8 15 18.5 27t24.5 21t29.5 13.5t31.5 4.5q24 0 45 -9t37 -25q15 -16 24 -36.5t9 -44.5v-1v0v-1.5v-1.5v-17h17q16 0 30 -6.5t24 -16.5q11 -10 17 -24t6 -30t-6 -30t-17 -24q-10 -11 -24 -17
t-30 -6v0zM256 139q-12 0 -23 4.5t-19 12.5t-13 19t-5 24q0 12 5 23t13 19t19 12.5t23 4.5v-31l64 37l-64 37v-26q-16 0 -30 -6t-24 -16q-11 -11 -17 -25t-6 -29q0 -16 6 -30t17 -25q10 -10 24 -16t30 -6t30 6t24 16q11 11 17 25t6 30h-17q0 -13 -5 -24t-13 -19t-19 -12.5
t-23 -4.5v0z" />
    <glyph glyph-name="uniE61E" unicode="&#xe61e;" 
d="M450 334l-0.5 0.5l-0.5 0.5l-362 85q-3 1 -6 -1t-4 -5q-1 -4 1 -7t5 -4l291 -68h-307q-5 0 -9.5 -2t-7.5 -5t-5 -7.5t-2 -9.5v-259q0 -5 2 -9.5t5 -7.5t7.5 -5t9.5 -2h378q5 0 9.5 2t7.5 5t5 7.5t2 9.5v259q0 4 -1.5 8t-3.5 7q-3 3 -6.5 5.5t-7.5 2.5v0zM452 52
q0 -3 -2 -5t-5 -2h-378q-3 0 -5 2t-2 5v259q0 3 2 5t5 2h378q3 0 5 -2t2 -5v-259v0zM196 198q-5 0 -9 -3.5t-4 -8.5q0 -6 4 -9.5t9 -3.5q6 0 9.5 3.5t3.5 9.5q0 5 -3.5 8.5t-9.5 3.5v0zM102 186q0 5 -3.5 8.5t-8.5 3.5q-6 0 -9.5 -3.5t-3.5 -8.5q0 -6 3.5 -9.5t9.5 -3.5
q5 0 8.5 3.5t3.5 9.5v0zM303 198q-5 0 -9 -3.5t-4 -8.5q0 -6 4 -9.5t9 -3.5t9 3.5t4 9.5q0 5 -4 8.5t-9 3.5v0zM149 174q-5 0 -8.5 -4t-3.5 -9q0 -6 3.5 -9.5t8.5 -3.5q6 0 9.5 3.5t3.5 9.5q0 5 -3.5 9t-9.5 4v0zM256 160q0 5 -3.5 9t-9.5 4q-5 0 -9 -4t-4 -9t4 -9t9 -4
q6 0 9.5 4t3.5 9v0zM149 224q-5 0 -8.5 -3.5t-3.5 -9.5q0 -5 3.5 -9t8.5 -4q6 0 9.5 4t3.5 9q0 6 -3.5 9.5t-9.5 3.5v0zM243 198q6 0 9.5 4t3.5 9q0 6 -3.5 9.5t-9.5 3.5q-5 0 -9 -3.5t-4 -9.5q0 -5 4 -9t9 -4v0zM107 147q-6 0 -9.5 -3.5t-3.5 -9.5q0 -5 3.5 -9t9.5 -4
q5 0 9 4t4 9q0 6 -4 9.5t-9 3.5v0zM286 147q-5 0 -9 -3.5t-4 -9.5q0 -5 4 -9t9 -4t9 4t4 9q0 6 -4 9.5t-9 3.5v0zM107 250q-6 0 -9.5 -4t-3.5 -9q0 -6 3.5 -9.5t9.5 -3.5q5 0 9 3.5t4 9.5q0 5 -4 9t-9 4v0zM286 224q5 0 9 3.5t4 9.5q0 5 -4 9t-9 4t-9 -4t-4 -9q0 -6 4 -9.5
t9 -3.5v0zM140 113q-5 0 -9 -3.5t-4 -9.5q0 -5 4 -8.5t9 -3.5q6 0 9.5 3.5t3.5 8.5q0 6 -3.5 9.5t-9.5 3.5v0zM251 113q-5 0 -8.5 -3.5t-3.5 -9.5q0 -5 3.5 -8.5t8.5 -3.5q6 0 9.5 3.5t3.5 8.5q0 6 -3.5 9.5t-9.5 3.5v0zM141 258q5 0 9 4t4 9t-4 9t-9 4t-9 -4t-4 -9t4 -9
t9 -4v0zM251 284q-5 0 -8.5 -4t-3.5 -9t3.5 -9t8.5 -4q6 0 9.5 4t3.5 9t-3.5 9t-9.5 4v0zM196 147q-5 0 -9 -3.5t-4 -9.5q0 -5 4 -9t9 -4q6 0 9.5 4t3.5 9q0 6 -3.5 9.5t-9.5 3.5v0zM196 96q-5 0 -9 -3.5t-4 -9.5q0 -5 4 -9t9 -4q6 0 9.5 4t3.5 9q0 6 -3.5 9.5t-9.5 3.5v0z
M196 250q-5 0 -9 -4t-4 -9q0 -6 4 -9.5t9 -3.5q6 0 9.5 3.5t3.5 9.5q0 5 -3.5 9t-9.5 4v0zM196 301q-5 0 -9 -4t-4 -9t4 -9t9 -4q6 0 9.5 4t3.5 9t-3.5 9t-9.5 4v0zM392 284q-5 0 -9.5 -2t-8.5 -6q-3 -3 -5 -8t-2 -10t2 -9.5t5 -8.5q4 -3 8.5 -5t9.5 -2q6 0 10.5 2t8.5 5
q3 4 5 8.5t2 9.5t-2 10t-5 8q-4 4 -8.5 6t-10.5 2v0zM392 250q-3 0 -5.5 2.5t-2.5 5.5q0 4 2.5 6.5t5.5 2.5q4 0 6.5 -2.5t2.5 -6.5q0 -3 -2.5 -5.5t-6.5 -2.5v0zM392 215q-5 0 -9.5 -2t-8.5 -5q-3 -3 -5 -8t-2 -10t2 -10t5 -8q4 -4 8.5 -6t9.5 -2q6 0 10.5 2t8.5 6q3 3 5 8
t2 10t-2 10t-5 8q-4 3 -8.5 5t-10.5 2v0zM392 181q-3 0 -5.5 2.5t-2.5 6.5q0 3 2.5 5.5t5.5 2.5q4 0 6.5 -2.5t2.5 -5.5q0 -4 -2.5 -6.5t-6.5 -2.5v0z" />
    <glyph glyph-name="uniE61F" unicode="&#xe61f;" 
d="M120 284q-8 0 -13 -5t-5 -12t5 -12t13 -5q7 0 12 5t5 12t-5 12t-12 5v0zM171 284q-7 0 -12 -5t-5 -12t5 -12t12 -5t12 5t5 12t-5 12t-12 5v0zM469 352h-94v85h-238v-85h-94q-4 0 -6.5 -2.5t-2.5 -6.5v-255q0 -4 2.5 -6.5t6.5 -2.5h94v-68h238v68h94q4 0 6.5 2.5t2.5 6.5
v255q0 4 -2.5 6.5t-6.5 2.5v0zM154 420h204v-68h-204v68v0zM358 28h-204v153h204v-153v0zM461 96h-86v102h-238v-102h-86v239h410v-239v0z" />
    <glyph glyph-name="uniE620" unicode="&#xe620;" 
d="M256 224l239 -136v272l-239 -136v0zM478 117l-188 107l188 107v-214v0zM17 224l239 -136v272l-239 -136v0zM239 117l-187 107l187 107v-214v0z" />
    <glyph glyph-name="uniE621" unicode="&#xe621;" 
d="M245 437h17v-204h-17v204v0zM339 403v-19q23 -12 42.5 -29t32.5 -39q14 -22 22 -47.5t8 -53.5q0 -38 -15 -72.5t-40 -59.5q-26 -26 -60 -40.5t-73 -14.5t-73 14.5t-60 40.5q-25 25 -40 59.5t-15 72.5q0 27 7.5 52t20.5 46q13 22 31.5 39t40.5 29v19q-26 -12 -47.5 -31
t-36.5 -43q-16 -24 -24.5 -52t-8.5 -59q0 -42 16 -79.5t44 -64.5q28 -28 65.5 -44t79.5 -16t79.5 16t65.5 44q28 27 44 64.5t16 79.5q0 32 -9 60.5t-25 53.5q-16 24 -38.5 43t-49.5 31v0z" />
    <glyph glyph-name="uniE622" unicode="&#xe622;" 
d="M316 365v42h-120v-42h-145v-324h410v324h-145v0zM213 390h86v-25h-86v25v0zM196 348h248v-137h-128v34h-120v-34h-128v137h128v0zM299 228v-51h-86v51h86v0zM68 58v136h128v-34h120v34h128v-136h-376v0z" />
    <glyph glyph-name="uniE623" unicode="&#xe623;" 
d="M256 437q-44 0 -83 -16.5t-68 -45.5t-45.5 -68t-16.5 -83t16.5 -83t45.5 -68t68 -45.5t83 -16.5t83 16.5t68 45.5t45.5 68t16.5 83t-16.5 83t-45.5 68t-68 45.5t-83 16.5v0zM256 28q-41 0 -76.5 15.5t-62.5 41.5q-26 27 -41.5 62.5t-15.5 76.5t15.5 76.5t41.5 62.5
q27 26 62.5 41.5t76.5 15.5t76.5 -15.5t62.5 -41.5q26 -27 41.5 -62.5t15.5 -76.5t-15.5 -76.5t-41.5 -62.5q-27 -26 -62.5 -41.5t-76.5 -15.5v0zM265 352h-18v-119h-118v-18h118v-118h18v118h119v18h-119v119z" />
    <glyph glyph-name="uniE624" unicode="&#xe624;" 
d="M120 373l256 -149l-256 -149v298v0zM102 403v-358l308 179l-308 179v0z" />
    <glyph glyph-name="uniE625" unicode="&#xe625;" 
d="M146 -7l-21 100l-101 22l20 40l93 5q3 5 10 13t12 13l84 85l-176 86l45 44l223 -39l79 79q3 4 7.5 6.5t9.5 4.5q6 2 12 2.5t13 0.5q9 0 15.5 -1t7.5 -1l4 -1l2 -5q3 -9 3.5 -18.5t-1.5 -18.5q-1 -9 -4.5 -16.5t-8.5 -12.5l-79 -80l39 -222l-45 -44l-86 175l-78 -79
q-7 -6 -17.5 -16t-15.5 -14l-7 -87l-39 -21v0zM49 127l90 -20l19 -89l11 6l7 85l2 2l13.5 12.5t21.5 19.5l95 96l86 -175l21 21l-39 222l86 86q6 5 8.5 17.5t-0.5 26.5q-3 1 -6.5 1h-7.5q-7 0 -15.5 -1.5t-14.5 -7.5l-85 -85l-223 39l-22 -21l176 -87l-101 -101
q-6 -6 -14.5 -16.5t-8.5 -11.5l-2 -3l-91 -5l-6 -11v0z" />
    <glyph glyph-name="uniE626" unicode="&#xe626;" 
d="M427 343v69h-401v-307h59v-69h401v307h-59v0zM43 122v273h367v-52h-325v-221h-42v0zM469 53h-367v273h367v-273v0z" />
    <glyph glyph-name="uniE627" unicode="&#xe627;" 
d="M369 454h-226q-5 0 -9.5 -1.5t-7.5 -4.5q-3 -4 -4.5 -8t-1.5 -9v-414q0 -5 1.5 -9t4.5 -8q3 -3 7.5 -4.5t9.5 -1.5h226q5 0 9.5 1.5t7.5 4.5q3 4 4.5 8t1.5 9v414q0 5 -1.5 9t-4.5 8q-3 3 -7.5 4.5t-9.5 1.5v0zM375 17q0 -3 -1.5 -4.5t-4.5 -1.5h-226q-3 0 -4.5 1.5
t-1.5 4.5v79h238v-79v0zM375 113h-238v273h238v-273v0zM375 403h-238v28q0 3 1.5 4.5t4.5 1.5h226q3 0 4.5 -1.5t1.5 -4.5v-28v0zM230 62h52v-17h-52v17v0z" />
    <glyph glyph-name="uniE628" unicode="&#xe628;" 
d="M492 387l-68 68l-16 -16l-24 23q-2 2 -5.5 2t-6.5 -2l-138 -138q-2 -3 -2 -6.5t2 -5.5q1 -2 3 -2.5t3 -0.5q2 0 3.5 0.5t2.5 2.5l132 132l18 -18l-293 -293l19 -19q-6 3 -12.5 4.5t-13.5 1.5q-6 0 -11.5 -1t-11.5 -4q-5 -2 -10 -5t-9 -8l-2 -2l-2 -2l-0.5 -0.5l-0.5 -0.5
l-1.5 -1.5t-0.5 -1.5q-1 0 -1 -0.5v-1.5q-19 -28 -22.5 -68l-3.5 -40h1.5h5.5q7 0 21 1t30 4t32 10t28 19q7 7 11 15.5t6 17.5q1 9 0 18t-6 17l22 -21l321 322v0zM126 30q-7 -7 -16.5 -12t-19.5 -8q-11 -4 -21 -5.5t-19 -2.5l39 39l-12 12l-38 -37q2 8 3.5 17.5t3.5 17.5
q3 9 6.5 17.5t7.5 14.5v1h1q0 1 0.5 1.5l0.5 0.5q0 1 0.5 1t0.5 1q1 0 1.5 1t1.5 1q3 3 6.5 5.5t6.5 4.5q4 1 8.5 2t8.5 1t8 -1l8 -2q4 -2 7.5 -4.5t6.5 -5.5q6 -6 9.5 -14t3.5 -16t-3.5 -16t-9.5 -14v0zM468 387l-101 -101l-44 44l101 101l44 -44v0zM311 318l44 -44
l-184 -185l-44 44l184 185v0z" />
    <glyph glyph-name="uniE629" unicode="&#xe629;" 
d="M198 164l76 -153l195 426l-426 -204l155 -69v0zM203 181l-119 52l326 157l-207 -209v0zM274 50l-59 119l209 211l-150 -330v0z" />
    <glyph glyph-name="uniE62A" unicode="&#xe62a;" 
d="M448 395v26q0 9 -3.5 16.5t-8.5 13.5q-6 5 -13.5 8.5t-16.5 3.5h-275q-8 0 -15.5 -3.5t-13.5 -8.5q-6 -6 -9 -13.5t-3 -16.5v-26h-8q-7 0 -13.5 -3t-11.5 -8q-5 -4 -7.5 -10.5t-2.5 -13.5v-59q0 -7 2.5 -13.5t7.5 -10.5q5 -5 11.5 -8t13.5 -3l160 1q8 0 13 -5.5t5 -12.5
v-59h-34v-205h85v205h-34v59q0 7 -2.5 13.5t-7.5 10.5q-5 5 -11 8t-14 3h-21v0h-139q-7 0 -12.5 5t-5.5 12v59q0 7 5.5 12.5t12.5 5.5h8v-27q0 -9 3 -16.5t9 -12.5q6 -6 13.5 -9.5t15.5 -3.5h275q9 0 16.5 3.5t13.5 9.5q5 5 8.5 12.5t3.5 16.5v27h17v17h-17v0zM294 2h-51
v171h51v-171v0zM431 351q0 -5 -2 -9.5t-5 -7.5q-4 -4 -8.5 -6t-9.5 -2h-275q-5 0 -9.5 2t-7.5 6q-3 3 -5 7.5t-2 9.5v70q0 5 2 9.5t5 8.5q3 3 7.5 5t9.5 2h275q5 0 9.5 -2t8.5 -5q3 -4 5 -8.5t2 -9.5v-70v0z" />
    <glyph glyph-name="uniE62B" unicode="&#xe62b;" 
d="M256 429h-136q-16 0 -28.5 -5t-21.5 -14t-14 -21.5t-5 -28.5v-283q0 -5 2 -15t9 -19q7 -10 21 -17t38 -7h340v410h-205v0zM239 412v-164l-42 39l-46 -40v165h88v0zM120 412h14v-201l63 53l59 -54v202h188v-282h-324q-9 0 -16 -1t-14 -3q-6 -3 -11.5 -6t-10.5 -8v248
q0 12 4 21.5t10 16.5q7 6 16.5 10t21.5 4v0zM121 36q-15 0 -24.5 3t-15.5 8t-9 11.5t-3 12.5q0 10 3.5 18t9.5 13q7 5 16.5 8t21.5 3h324v-77h-323v0z" />
    <glyph glyph-name="uniE62C" unicode="&#xe62c;" 
d="M444 413q-3 4 -8 5.5t-10 1.5t-9.5 -1.5t-8.5 -5.5l-75 -75v14h-273v-324h324v273h-16l76 76q4 3 6 8t2 10t-2 9.5t-6 8.5v0zM367 45h-290v290h253l-133 -134v-37h35l135 135v-254v0zM432 389l-207 -208h-11v13l206 207q2 1 3.5 1.5t2.5 0.5t3 -0.5t3 -1.5q2 -2 2.5 -3.5
t0.5 -2.5t-0.5 -3t-2.5 -3v0z" />
    <glyph glyph-name="uniE62D" unicode="&#xe62d;" 
d="M17 360v-272l239 136l-239 136v0zM34 331l188 -107l-188 -107v214v0zM256 360v-272l239 136l-239 136v0zM273 331l187 -107l-187 -107v214v0z" />
    <glyph glyph-name="uniE62E" unicode="&#xe62e;" 
d="M145 437v-239h-102v-57v-82q0 -13 5 -22t14 -15q8 -6 17.5 -8.5t18.5 -2.5h51.5h94.5h102.5h71.5q10 0 19 4t16 12q8 7 12 16t4 19v194.5v180.5h-324v0zM98 28q-8 0 -23 6t-15 25v122h85v-115q0 -4 -2.5 -10.5t-7.5 -12.5t-12.5 -10.5t-15.5 -4.5h-9v0zM452 62
q0 -6 -3 -12.5t-8 -10.5q-4 -5 -10.5 -8t-12.5 -3h-274q5 4 8 9l6 10q2 6 3 10.5t1 8.5v354h290v-358v0zM196 386h222v-17h-222v17v0zM196 156h222v-17h-222v17v0zM196 96h222v-17h-222v17v0zM418 326h-222v-128h222v128v0zM401 215h-188v94h188v-94v0z" />
    <glyph glyph-name="uniE62F" unicode="&#xe62f;" 
d="M43 343h222v-17h-222v17v0zM43 267h222v-17h-222v17v0zM43 190h222v-17h-222v17v0zM350 333l119 -15q0 32 -11.5 52t-30.5 33q-20 13 -44.5 20.5t-49.5 13.5v-324h-20.5h-32.5q-19 0 -31.5 -4.5t-20.5 -11.5t-11.5 -16.5t-3.5 -18.5q0 -7 3.5 -16t11.5 -17q7 -8 20.5 -13
t33.5 -5q28 0 42 10t20 25q6 16 6 33.5v33.5v220v0zM451 337l-101 13v65q21 -6 38.5 -12t30.5 -15q12 -9 20.5 -21t11.5 -30v0zM320 40q-3 -3 -6.5 -5.5t-8.5 -3.5q-5 -2 -11 -2.5t-12 -0.5q-37 0 -44.5 15t-7.5 19q0 8 3.5 14.5t9.5 10.5q7 5 16 7t21 2h53v-13v0
q0 -7 -1 -13l-2 -12q-1 -5 -3.5 -10t-6.5 -8v0z" />
    <glyph glyph-name="uniE630" unicode="&#xe630;" 
d="M461 457l-282 -100v-247q-5 6 -11 11t-13 8q-7 4 -15 5.5t-16 1.5q-15 0 -28.5 -5.5t-22.5 -15.5q-10 -10 -16 -23t-6 -28t6 -28.5t16 -22.5q9 -10 22.5 -16t28.5 -6t28 5.5t23 15.5q9 10 15 23t6 28v0v282l248 88v-229q-5 6 -11.5 11t-13.5 8t-14.5 5t-16.5 2
q-15 0 -28 -5.5t-23 -15.5t-15.5 -23t-5.5 -28t5.5 -28.5t15.5 -23.5q10 -9 23 -15t28 -6t28.5 6t22.5 15q10 10 16 23.5t6 28.5v2v2v0v295v0zM124 8q-12 0 -22 4.5t-17 12.5q-8 7 -12.5 17t-4.5 22q0 11 4.5 21t12.5 18q7 8 17 12t22 4q11 0 21 -4t18 -12t12 -18t4 -21
q0 -12 -4 -22t-12 -17q-8 -8 -18 -12.5t-21 -4.5v0zM388 102q-11 0 -21 4.5t-18 11.5q-8 8 -12 18t-4 22q0 11 4 21t12 18q8 7 18 11.5t21 4.5q12 0 22 -4.5t17 -11.5q8 -8 12.5 -18t4.5 -21q0 -12 -4.5 -22t-12.5 -18q-7 -7 -17 -11.5t-22 -4.5v0z" />
    <glyph glyph-name="uniE631" unicode="&#xe631;" 
d="M265 343v26q0 6 9.5 13.5t19.5 13.5q7 4 14 8.5t13 9.5q5 6 8.5 11.5t3.5 12.5v42h-17v-42q0 -7 -10.5 -14t-20.5 -14q-7 -4 -13.5 -8.5t-12.5 -9.5q-5 -5 -8.5 -10.5t-3.5 -12.5v-26q-25 -2 -46.5 -12t-37.5 -27q-16 -16 -25.5 -38t-9.5 -47v-127q0 -25 10 -48t28 -40
q17 -16 40.5 -26t49.5 -10t49.5 10t40.5 26q18 17 28 40t10 48v127q0 25 -9.5 47t-25.5 38q-16 17 -37.5 27t-46.5 12v0zM367 219v-12h-102v119q21 -2 39.5 -11t32.5 -23t22 -33t8 -40v0zM145 219q0 21 8 40t22 33t32.5 23t39.5 11v-119h-102v12v0zM256 -15q-23 0 -43 8.5
t-35 23.5q-15 14 -24 33.5t-9 41.5v98h222v-98q0 -22 -9 -41.5t-24 -33.5q-15 -15 -35 -23.5t-43 -8.5v0z" />
    <glyph glyph-name="uniE632" unicode="&#xe632;" 
d="M51 275q-10 0 -19.5 -4t-16.5 -11t-11 -16t-4 -20t4 -20t11 -16t16.5 -11t19.5 -4q11 0 20.5 4t15.5 11q7 7 11 16t4 20t-4 20t-11 16q-6 7 -15.5 11t-20.5 4v0zM51 190q-7 0 -13 2.5t-11 7.5q-4 5 -7 11t-3 13t3 13t7 11q5 5 11 7.5t13 2.5t13.5 -2.5t10.5 -7.5
q5 -5 7.5 -11t2.5 -13t-2.5 -13t-7.5 -11q-4 -5 -10.5 -7.5t-13.5 -2.5v0zM461 275q-11 0 -20.5 -4t-15.5 -11q-7 -7 -11 -16t-4 -20t4 -20t11 -16q6 -7 15.5 -11t20.5 -4q10 0 19.5 4t16.5 11t11 16t4 20t-4 20t-11 16t-16.5 11t-19.5 4v0zM461 190q-7 0 -13.5 2.5
t-10.5 7.5q-5 5 -7.5 11t-2.5 13t2.5 13t7.5 11q4 5 10.5 7.5t13.5 2.5t13 -2.5t11 -7.5q4 -5 7 -11t3 -13t-3 -13t-7 -11q-5 -5 -11 -7.5t-13 -2.5v0zM256 275q-11 0 -20 -4t-16 -11t-11 -16t-4 -20t4 -20t11 -16t16 -11t20 -4t20 4t16 11t11 16t4 20t-4 20t-11 16t-16 11
t-20 4v0zM256 190q-7 0 -13 2.5t-11 7.5t-7.5 11t-2.5 13t2.5 13t7.5 11t11 7.5t13 2.5t13 -2.5t11 -7.5t7.5 -11t2.5 -13t-2.5 -13t-7.5 -11t-11 -7.5t-13 -2.5v0z" />
    <glyph glyph-name="uniE633" unicode="&#xe633;" 
d="M158 399q-5 -10 -9 -21t-6 -22q-3 -11 -4.5 -22.5t-1.5 -23.5q0 -42 16 -78.5t44 -64.5q27 -27 64 -43t79 -16q12 0 24 1.5t24 3.5q12 3 23 7.5t22 9.5q-13 -23 -31.5 -42t-40.5 -32q-23 -13 -48.5 -20.5t-53.5 -7.5q-41 0 -77.5 16t-63.5 43t-42.5 63t-15.5 78
q0 27 7 52t20 47q12 22 30.5 40.5t40.5 31.5v0zM205 437q-35 -9 -65 -29t-51 -47q-22 -28 -34 -62t-12 -71q0 -45 17 -84.5t46 -68.5q29 -30 68.5 -47t84.5 -17q38 0 72.5 12.5t62.5 35.5q28 22 47.5 52.5t27.5 66.5q-12 -13 -27 -22.5t-31 -16.5t-34 -10.5t-37 -3.5
q-39 0 -72.5 14.5t-58.5 39.5t-40 59t-15 72q0 19 3.5 36t10.5 33q6 16 15.5 30.5t21.5 27.5v0v0z" />
    <glyph glyph-name="uniE634" unicode="&#xe634;" 
d="M478 113v307h-444v-307h213v-68h-59v-17h136v17h-59v68h213v0zM51 403h410v-273h-410v273v0z" />
    <glyph glyph-name="uniE635" unicode="&#xe635;" 
d="M256 122q19 0 36.5 7.5t29.5 19.5q13 13 20.5 30t7.5 37v170q0 19 -7.5 36t-20.5 30q-12 13 -29.5 20t-36.5 7t-36 -7t-30 -20t-20.5 -30t-7.5 -36v-170q0 -20 7.5 -37t20.5 -30q13 -12 30 -19.5t36 -7.5v0zM179 386q0 16 6.5 30t16.5 24t24 16t30 6t30 -6t24 -16
q11 -10 17 -24t6 -30v-170q0 -16 -6 -30t-17 -25q-10 -10 -24 -16t-30 -6t-30 6t-24 16q-10 11 -16.5 25t-6.5 30v170v0zM384 301v-85q0 -27 -10 -50t-28 -41q-17 -17 -40.5 -27t-49.5 -10t-49.5 10t-40.5 27q-18 18 -28 41t-10 50v85h-17v-85q0 -29 11 -55t29 -45
q19 -20 44 -31.5t54 -13.5h-1v-85h-77v-17h170v17h-76v85h-2q29 2 54 13.5t44 31.5q18 19 29 45t11 55v85h-17v0z" />
    <glyph glyph-name="uniE636" unicode="&#xe636;" 
d="M51 369v-68h410v68h-410v0zM444 318h-376v34h376v-34v0zM51 190h410v68h-410v-68v0zM68 241h376v-34h-376v34v0zM51 79h410v68h-410v-68v0zM68 130h376v-34h-376v34v0z" />
    <glyph glyph-name="uniE637" unicode="&#xe637;" 
d="M369 426l-11 5l-8 -4v0l-94 -47l-102 51l-111 -56v-358l111 56l102 -52l102 52l111 -56v358l-100 51v0zM145 87l-85 -42v320l85 43v-321v0zM247 45l-85 42v321l85 -43v-320v0zM350 87l-85 -42v320l85 43v-321v0zM452 45l-85 42v321l85 -43v-320v0z" />
    <glyph glyph-name="uniE638" unicode="&#xe638;" 
d="M256 463q32 0 60 -12t49 -33q20 -21 32.5 -49t12.5 -60q0 -10 -1.5 -20t-4.5 -19q-2 -10 -6 -19.5t-9 -17.5l-133 -231l-133 231q-5 8 -9 17.5t-6 19.5q-3 9 -4.5 19t-1.5 20q0 32 12.5 60t32.5 49q21 21 49 33t60 12v0zM256 250q12 0 23 4.5t19 12.5t13 19t5 23
q0 13 -5 23.5t-13 18.5q-8 9 -19 13.5t-23 4.5t-23 -4.5t-19 -13.5q-8 -8 -13 -18.5t-5 -23.5q0 -12 5 -23t13 -19t19 -12.5t23 -4.5v0zM256 480q-35 0 -66 -13.5t-55 -36.5q-23 -23 -36.5 -54t-13.5 -67q0 -11 1.5 -22.5t4.5 -22.5q3 -10 7.5 -20.5t9.5 -19.5l148 -256
l148 256q5 9 9.5 19.5t7.5 20.5q3 11 4.5 22.5t1.5 22.5q0 36 -13.5 67t-36.5 54q-24 23 -55 36.5t-66 13.5v0v0zM256 267q-9 0 -16.5 3t-13.5 9t-9.5 13.5t-3.5 16.5t3.5 17t9.5 13q6 6 13.5 9.5t16.5 3.5t16.5 -3.5t13.5 -9.5q6 -5 9.5 -13t3.5 -17t-3.5 -16.5t-9.5 -13.5
t-13.5 -9t-16.5 -3v0v0z" />
    <glyph glyph-name="uniE639" unicode="&#xe639;" 
d="M452 360h-409v-272h426v272h-17v0zM435 343l-165 -164q-6 -6 -14 -6t-14 6l-165 164h358v0zM60 337l111 -111l-111 -111v222v0zM73 105l110 109l47 -47q5 -6 12 -8.5t14 -2.5t14 2.5t12 8.5l47 47l110 -109h-366v0zM452 115l-111 111l111 111v-222v0z" />
    <glyph glyph-name="uniE63A" unicode="&#xe63a;" 
d="M468 267l-186 185q-5 5 -12 8t-14 3t-14 -3t-12 -8l-187 -187v-280h426v280l-1 2v0zM70 268l172 172q6 6 14 6t14 -6l180 -180l-123 -123l-45 46q-5 5 -12 8t-14 3t-14 -3t-12 -8l-46 -46l-123 122l9 9v0zM172 125l-1 -2v0l-111 -110v224l112 -112v0zM73 2l10 9v0
l159 160q6 5 14 5t14 -5l169 -169h-366v0zM452 231v-218l-113 112l113 113v-7v0z" />
    <glyph glyph-name="uniE63B" unicode="&#xe63b;" 
d="M468 267l-186 185q-5 5 -12 8t-14 3t-14 -3t-12 -8l-41 -40h-61v-62l-85 -85v-280h426v280l-1 2v0zM450 260l-66 -66v132l66 -66v0zM242 440q6 6 14 6t14 -6l28 -28h-84l28 28v0zM316 395l51 -52v-166l-40 -40l-45 46q-5 5 -12 8t-14 3t-14 -3t-12 -8l-46 -46l-39 39v219
h171v0zM70 268l58 58v-133l-67 66l9 9v0zM60 223v14l112 -112l-1 -2v0l-111 -110v210v0zM73 2l10 9v0l159 160q6 5 14 5t14 -5l169 -169h-366v0zM452 234v-221l-113 112l113 113v-4v0zM196 343h120v-17h-120v17v0zM196 241h120v-17h-120v17v0zM196 292h86v-17h-86v17v0z" />
    <glyph glyph-name="uniE63C" unicode="&#xe63c;" 
d="M342 437v-238q0 -18 -7 -33.5t-19 -27.5q-11 -11 -26.5 -18t-33.5 -7t-33.5 7t-26.5 18q-12 12 -19 27.5t-7 33.5v238h-102v-239q0 -38 15 -72.5t40 -59.5q26 -26 60 -40.5t73 -14.5t73 14.5t60 40.5q25 25 40 59.5t15 72.5v239h-102v0zM427 420v-51h-68v51h68v0z
M153 420v-51h-68v51h68v0zM256 28q-35 0 -66 13.5t-55 36.5q-23 23 -36.5 54t-13.5 66v154h68v-153q0 -22 8.5 -40.5t22.5 -32.5q13 -14 32 -22t40 -8t40 8t32 22q14 14 22.5 32.5t8.5 40.5v153h68v-154q0 -35 -13.5 -66t-36.5 -54q-24 -23 -55 -36.5t-66 -13.5v0z" />
    <glyph glyph-name="uniE63D" unicode="&#xe63d;" 
d="M327 307l-148 -147l12 -12l148 147zM111 130q-19 0 -36.5 7.5t-29.5 20.5q-13 12 -20.5 29.5t-7.5 36.5t7.5 36.5t20.5 29.5q12 13 29.5 20.5t36.5 7.5q9 0 18 -2t17 -5q9 -4 16 -8.5t14 -10.5v0v-1l34 -33h-31v-17h60v60h-17v-31l-33 33h-1q-7 8 -16 13.5t-18 9.5
q-10 4 -21 6.5t-22 2.5q-23 0 -43 -9t-35 -24t-24 -35t-9 -43t9 -43t24 -35t35 -24t43 -9q12 0 23 2.5t21 6.5q11 5 20 11.5t16 14.5l-12 12q-6 -7 -14 -12.5t-16 -9.5q-9 -4 -18.5 -6t-19.5 -2v0zM401 335q-11 0 -21 -2t-19 -6q-9 -3 -17.5 -8.5t-16.5 -11.5l13 -12
q6 5 13 9.5t15 7.5q7 3 15.5 4.5t17.5 1.5q19 0 36.5 -7.5t29.5 -20.5q13 -12 20.5 -29.5t7.5 -36.5t-7.5 -36.5t-20.5 -29.5q-12 -13 -29.5 -20.5t-36.5 -7.5q-9 0 -18 2t-17 5t-15.5 8t-13.5 11v0l-57 56l-12 -12l56 -56h1q7 -7 15.5 -13t18.5 -10t20.5 -6t21.5 -2
q23 0 43 9t35 24t24 35t9 43t-9 43t-24 35t-35 24t-43 9v0z" />
    <glyph glyph-name="uniE63E" unicode="&#xe63e;" 
d="M256 378q-35 0 -67 -11t-62 -31q-31 -19 -62 -47.5t-65 -64.5q29 -30 56.5 -58t57.5 -49t64.5 -34t77.5 -13t80 15.5t69 38.5t58.5 49.5l48.5 48.5q-22 27 -49 54.5t-59 49.5q-32 23 -69 37.5t-79 14.5v0zM256 88q-38 0 -69 10.5t-59 29.5t-53 43.5t-51 52.5
q31 33 59.5 58t56.5 43q28 17 56.5 26t59.5 9q37 0 70 -12t62 -31q29 -20 54 -44.5t47 -49.5q-21 -22 -46 -46t-54 -44t-62 -32.5t-71 -12.5v0zM256 326q-21 0 -39.5 -8t-32.5 -22t-22 -32.5t-8 -39.5t8 -39.5t22 -32.5t32.5 -22t39.5 -8t39.5 8t32.5 22t22 32.5t8 39.5
t-8 39.5t-22 32.5t-32.5 22t-39.5 8v0zM256 139q-18 0 -33.5 6.5t-26.5 18.5q-12 11 -18.5 26.5t-6.5 33.5t6.5 33.5t18.5 26.5q11 12 26.5 18.5t33.5 6.5t33.5 -6.5t26.5 -18.5q12 -11 18.5 -26.5t6.5 -33.5t-6.5 -33.5t-18.5 -26.5q-11 -12 -26.5 -18.5t-33.5 -6.5v0z
M256 284q-12 0 -23 -5t-19 -13t-13 -19t-5 -23t5 -23t13 -19t19 -13t23 -5t23 5t19 13t13 19t5 23t-5 23t-13 19t-19 13t-23 5v0zM256 181q-9 0 -16.5 3.5t-13.5 9.5t-9.5 13.5t-3.5 16.5t3.5 16.5t9.5 13.5t13.5 9.5t16.5 3.5t16.5 -3.5t13.5 -9.5t9.5 -13.5t3.5 -16.5
t-3.5 -16.5t-9.5 -13.5t-13.5 -9.5t-16.5 -3.5v0z" />
    <glyph glyph-name="uniE63F" unicode="&#xe63f;" 
d="M367 233v102q0 23 -9 43t-24 35t-35 24t-43 9t-43 -9t-35 -24t-24 -35t-9 -43v-102h-60v-231h342v231h-60v0zM162 335q0 19 7.5 36t20.5 30q12 13 29.5 20.5t36.5 7.5t36.5 -7.5t29.5 -20.5q13 -13 20.5 -30t7.5 -36v-102h-188v102v0zM410 19h-308v196h308v-196v0z" />
    <glyph glyph-name="uniE640" unicode="&#xe640;" 
d="M137 480v-51l59 -103v-358h120v358l59 103v51h-238v0zM154 463h204v-30l-2 -4h-200l-2 4v30v0zM213 -15v34h86v-34h-86v0zM301 335l-2 -4v-295h-86v295l-47 81h180l-45 -77v0zM256 241q-5 0 -10 -2t-8 -5q-4 -4 -6 -8.5t-2 -10.5v-34q0 -5 2 -9.5t6 -8.5q3 -3 8 -5t10 -2
t10 2t8 5q4 4 6 8.5t2 9.5v34q0 6 -2 10.5t-6 8.5q-3 3 -8 5t-10 2v0zM265 181q0 -3 -2.5 -5.5t-6.5 -2.5t-6.5 2.5t-2.5 5.5v34q0 4 2.5 6.5t6.5 2.5t6.5 -2.5t2.5 -6.5v-34v0z" />
    <glyph glyph-name="uniE641" unicode="&#xe641;" 
d="M281 147q-8 0 -16 1.5t-15 4.5t-14 7.5t-13 10.5l12 12q10 -9 21.5 -14t24.5 -5q12 0 24 5t21 14l107 108q10 9 14.5 21t4.5 24t-4.5 24t-14.5 21l-20 20q-9 10 -21 14.5t-24 4.5t-24 -4.5t-21 -14.5l-76 -75l-12 12l76 75q11 12 26 18t31 6t31 -6t26 -18l20 -20
q12 -11 18 -26t6 -31t-6 -31t-18 -26l-107 -108q-6 -6 -13 -10.5t-14 -7.5t-15 -4.5t-15 -1.5v0zM144 11q-8 0 -16 1.5t-15 4.5t-14 7.5t-12 10.5l-20 20q-12 11 -18 26t-6 31t6 31t18 27l107 107q12 12 27 18t30 6q16 0 31 -6t27 -18l20 -20l-12 -12l-20 20q-10 9 -21.5 14
t-24.5 5q-12 0 -24 -5t-21 -14l-107 -108q-10 -9 -14.5 -21t-4.5 -24t4.5 -24t14.5 -21l20 -20q4 -5 9.5 -8.5t10.5 -5.5q6 -3 12.5 -4t12.5 -1t12.5 1t12.5 4q5 2 10.5 5.5t9.5 8.5l72 71l12 -12l-72 -71q-5 -6 -12 -10.5t-14 -7.5t-15 -4.5t-16 -1.5v0z" />
    <glyph glyph-name="uniE642" unicode="&#xe642;" 
d="M350 398q21 0 39.5 -8t32.5 -22t22 -32.5t8 -39.5q0 -11 -2 -21t-6 -20q-4 -9 -10 -17t-13 -15l-165 -166l-168 169q-6 6 -11.5 14t-9.5 17q-3 9 -5 19t-2 20q0 21 8 39.5t22 32.5t32.5 22t39.5 8q16 0 30.5 -4.5t26.5 -12.5q12 -9 21.5 -20.5t15.5 -25.5q6 14 15.5 25.5
t21.5 20.5q12 8 26.5 12.5t30.5 4.5v0zM350 415q-14 0 -27.5 -3t-25.5 -9t-22.5 -14.5t-18.5 -19.5q-8 11 -18.5 19.5t-22.5 14.5t-25.5 9t-27.5 3q-25 0 -46.5 -9.5t-37.5 -25.5q-17 -16 -26 -37.5t-9 -46.5q0 -11 2 -22.5t6 -21.5q5 -11 11 -20.5t14 -17.5l180 -181
l177 178q9 8 15.5 18t11.5 20q4 11 6.5 23t2.5 24q0 25 -9 46.5t-26 37.5q-16 16 -37.5 25.5t-46.5 9.5v0v0z" />
    <glyph glyph-name="uniE643" unicode="&#xe643;" 
d="M427 301q0 35 -13.5 66t-36.5 55q-24 23 -55 36.5t-66 13.5t-66 -13.5t-55 -36.5q-23 -24 -36.5 -55t-13.5 -66q0 -21 5 -40.5t14 -36.5t21.5 -32t27.5 -27v0q1 0 1.5 -0.5t0.5 -1.5h0.5h0.5q5 -4 10.5 -10.5t10.5 -14.5q4 -9 7.5 -19.5t3.5 -22.5v-120h136v120
q0 13 3.5 24t8.5 20q5 8 11 14.5t11 10.5v0q16 11 28.5 26t21.5 32q9 18 14 37.5t5 40.5v0zM205 -6v51h102v-51h-102v0zM256 284q-7 0 -12 5t-5 12t5 12t12 5t12 -5t5 -12t-5 -12t-12 -5v0zM348 178v0h-1q-7 -5 -14 -13t-13 -18q-6 -11 -9.5 -23.5t-3.5 -27.5v-34h-42v206
q5 1 9.5 4.5t8.5 7.5q3 4 5 9.5t2 11.5q0 7 -2.5 13t-7.5 11t-11 7.5t-13 2.5t-13 -2.5t-11 -7.5t-7.5 -11t-2.5 -13q0 -6 2 -11.5t5 -9.5q4 -4 8.5 -7.5t9.5 -4.5v-206h-42v34q0 14 -3.5 26.5t-9.5 22.5q-5 10 -12 18t-14 13v0.5v0.5q-1 0 -1 0.5t-1 0.5v0.5t-1 0.5
q-14 11 -25.5 24.5t-19.5 29.5q-7 15 -11.5 32.5t-4.5 35.5q0 32 12.5 60t32.5 48q21 21 49 33t60 12t60 -12t49 -33q20 -20 32.5 -48t12.5 -60q0 -18 -4.5 -35.5t-12.5 -33.5q-7 -15 -18.5 -29t-26.5 -25v0z" />
    <glyph glyph-name="uniE644" unicode="&#xe644;" 
d="M256 437q-44 0 -83 -16.5t-68 -45.5t-45.5 -68t-16.5 -83t16.5 -83t45.5 -68t68 -45.5t83 -16.5t83 16.5t68 45.5t45.5 68t16.5 83t-16.5 83t-45.5 68t-68 45.5t-83 16.5v0zM256 28q-41 0 -76.5 15.5t-62.5 41.5q-26 27 -41.5 62.5t-15.5 76.5t15.5 76.5t41.5 62.5
q27 26 62.5 41.5t76.5 15.5t76.5 -15.5t62.5 -41.5q26 -27 41.5 -62.5t15.5 -76.5t-15.5 -76.5t-41.5 -62.5q-27 -26 -62.5 -41.5t-76.5 -15.5v0zM146 233h221v-18h-221v18v0z" />
    <glyph glyph-name="uniE645" unicode="&#xe645;" 
d="M111 130q-11 0 -20 -4t-16 -11t-11 -16t-4 -20t4 -20t11 -16t16 -11t20 -4t20 4t16 11t11 16t4 20t-4 20t-11 16t-16 11t-20 4v0zM111 45q-7 0 -13 2.5t-11 7.5t-7.5 11t-2.5 13t2.5 13t7.5 11t11 7.5t13 2.5t13 -2.5t11 -7.5t7.5 -11t2.5 -13t-2.5 -13t-7.5 -11
t-11 -7.5t-13 -2.5v0zM111 420q-11 0 -20 -4t-16 -11t-11 -16t-4 -20t4 -20t11 -16t16 -11t20 -4t20 4t16 11t11 16t4 20t-4 20t-11 16t-16 11t-20 4v0zM111 335q-7 0 -13 2.5t-11 7.5t-7.5 11t-2.5 13t2.5 13t7.5 11t11 7.5t13 2.5t13 -2.5t11 -7.5t7.5 -11t2.5 -13
t-2.5 -13t-7.5 -11t-11 -7.5t-13 -2.5v0zM111 276q-11 0 -20 -4.5t-16 -10.5q-7 -7 -11 -16.5t-4 -20.5q0 -10 4 -19.5t11 -16.5t16 -11t20 -4t20 4t16 11t11 16.5t4 19.5q0 11 -4 20.5t-11 16.5q-7 6 -16 10.5t-20 4.5v0zM111 190q-7 0 -13 3t-11 7q-5 5 -7.5 11t-2.5 13
t2.5 13.5t7.5 10.5q5 5 11 7.5t13 2.5t13 -2.5t11 -7.5q5 -4 7.5 -10.5t2.5 -13.5t-2.5 -13t-7.5 -11q-5 -4 -11 -7t-13 -3v0zM256 130q-11 0 -20 -4t-16 -11t-11 -16t-4 -20t4 -20t11 -16t16 -11t20 -4t20 4t16 11t11 16t4 20t-4 20t-11 16t-16 11t-20 4v0zM256 45
q-7 0 -13 2.5t-11 7.5t-7.5 11t-2.5 13t2.5 13t7.5 11t11 7.5t13 2.5t13 -2.5t11 -7.5t7.5 -11t2.5 -13t-2.5 -13t-7.5 -11t-11 -7.5t-13 -2.5v0zM256 420q-11 0 -20 -4t-16 -11t-11 -16t-4 -20t4 -20t11 -16t16 -11t20 -4t20 4t16 11t11 16t4 20t-4 20t-11 16t-16 11t-20 4
v0zM256 335q-7 0 -13 2.5t-11 7.5t-7.5 11t-2.5 13t2.5 13t7.5 11t11 7.5t13 2.5t13 -2.5t11 -7.5t7.5 -11t2.5 -13t-2.5 -13t-7.5 -11t-11 -7.5t-13 -2.5v0zM256 276q-11 0 -20 -4.5t-16 -10.5q-7 -7 -11 -16.5t-4 -20.5q0 -10 4 -19.5t11 -16.5t16 -11t20 -4t20 4t16 11
t11 16.5t4 19.5q0 11 -4 20.5t-11 16.5q-7 6 -16 10.5t-20 4.5v0zM256 190q-7 0 -13 3t-11 7q-5 5 -7.5 11t-2.5 13t2.5 13.5t7.5 10.5q5 5 11 7.5t13 2.5t13 -2.5t11 -7.5q5 -4 7.5 -10.5t2.5 -13.5t-2.5 -13t-7.5 -11q-5 -4 -11 -7t-13 -3v0zM401 130q-11 0 -20 -4
t-16 -11t-11 -16t-4 -20t4 -20t11 -16t16 -11t20 -4t20 4t16 11t11 16t4 20t-4 20t-11 16t-16 11t-20 4v0zM401 45q-7 0 -13 2.5t-11 7.5t-7.5 11t-2.5 13t2.5 13t7.5 11t11 7.5t13 2.5t13 -2.5t11 -7.5t7.5 -11t2.5 -13t-2.5 -13t-7.5 -11t-11 -7.5t-13 -2.5v0zM401 318
q11 0 20 4t16 11t11 16t4 20t-4 20t-11 16t-16 11t-20 4t-20 -4t-16 -11t-11 -16t-4 -20t4 -20t11 -16t16 -11t20 -4v0zM401 403q7 0 13 -2.5t11 -7.5t7.5 -11t2.5 -13t-2.5 -13t-7.5 -11t-11 -7.5t-13 -2.5t-13 2.5t-11 7.5t-7.5 11t-2.5 13t2.5 13t7.5 11t11 7.5t13 2.5v0
zM401 276q-11 0 -20 -4.5t-16 -10.5q-7 -7 -11 -16.5t-4 -20.5q0 -10 4 -19.5t11 -16.5t16 -11t20 -4t20 4t16 11t11 16.5t4 19.5q0 11 -4 20.5t-11 16.5q-7 6 -16 10.5t-20 4.5v0zM401 190q-7 0 -13 3t-11 7q-5 5 -7.5 11t-2.5 13t2.5 13.5t7.5 10.5q5 5 11 7.5t13 2.5
t13 -2.5t11 -7.5q5 -4 7.5 -10.5t2.5 -13.5t-2.5 -13t-7.5 -11q-5 -4 -11 -7t-13 -3v0z" />
    <glyph glyph-name="uniE646" unicode="&#xe646;" 
d="M319 241l-12 12l-51 -51l-51 51l-12 -12l51 -51l-52 -51l13 -12l51 51l51 -51l13 12l-52 51zM469 369h-426v-17h12l5 -34q0 -5 1.5 -10t3.5 -9q3 -4 6.5 -7t7.5 -5l30 -175q2 -7 4.5 -13t6.5 -10q4 -5 9.5 -7.5t12.5 -2.5h228q7 0 12.5 2.5t9.5 6.5q4 5 6.5 11t4.5 13
l30 175q4 2 7.5 5t6.5 7q2 4 3.5 9t1.5 10l5 34h12v17v0zM386 115q-1 -6 -4.5 -12.5t-11.5 -6.5h-228q-9 0 -12 7.5t-4 10.5l-29 170h318l-29 -169v0zM435 320v-1v-1q0 -7 -5 -12t-12 -5h-324q-7 0 -12 5t-5 12v1v1l-5 32h368l-5 -32v0z" />
    <glyph glyph-name="uniE647" unicode="&#xe647;" 
d="M257 302q5 0 10 2t8 5q4 3 6 8t2 10t-2 10t-6 8q-3 4 -8 6t-10 2t-10 -2t-8 -6q-4 -3 -6 -8t-2 -10t2 -10t6 -8q3 -3 8 -5t10 -2v0zM274 267v17h-51v-17h17v-145h-17v-17h69v17h-18v145zM256 437q-44 0 -83 -16.5t-68 -45.5t-45.5 -68t-16.5 -83t16.5 -83t45.5 -68
t68 -45.5t83 -16.5t83 16.5t68 45.5t45.5 68t16.5 83t-16.5 83t-45.5 68t-68 45.5t-83 16.5v0zM256 28q-41 0 -76.5 15.5t-62.5 41.5q-26 27 -41.5 62.5t-15.5 76.5t15.5 76.5t41.5 62.5q27 26 62.5 41.5t76.5 15.5t76.5 -15.5t62.5 -41.5q26 -27 41.5 -62.5t15.5 -76.5
t-15.5 -76.5t-41.5 -62.5q-27 -26 -62.5 -41.5t-76.5 -15.5v0z" />
    <glyph glyph-name="uniE648" unicode="&#xe648;" 
d="M256 437l-85 -85v34h-69v-102l-60 -60l12 -12l202 201l202 -201l12 12l-214 213v0zM120 369h34v-34l-34 -34v68v0zM102 215v-204h120v119h68v-119h120v204l-154 154l-154 -154v0zM392 28h-85v119h-102v-119h-85v180l136 137l136 -137v-180v0z" />
    <glyph glyph-name="uniE649" unicode="&#xe649;" 
d="M256 429q-42 0 -79.5 -16t-65.5 -44t-44 -65.5t-16 -79.5t16 -79.5t44 -65.5t65.5 -44t79.5 -16t79.5 16t65.5 44t44 65.5t16 79.5t-16 79.5t-44 65.5t-65.5 44t-79.5 16v0zM256 130q-19 0 -36.5 7.5t-29.5 20.5q-13 12 -20.5 29.5t-7.5 36.5t7.5 36.5t20.5 29.5
q12 13 29.5 20.5t36.5 7.5v0q19 0 36.5 -7.5t29.5 -20.5q13 -12 20.5 -29.5t7.5 -36.5t-7.5 -36.5t-20.5 -29.5q-12 -13 -29.5 -20.5t-36.5 -7.5v0zM358 267l65 43q5 -10 9 -20t6 -21q3 -11 4.5 -22t1.5 -23q0 -11 -1.5 -22.5t-4.5 -21.5q-2 -11 -6 -21t-9 -20l-64 43
q2 5 3.5 10t2.5 10q1 6 1.5 11t0.5 11t-0.5 11.5t-1.5 10.5t-3 10.5t-4 10.5v0zM414 325l-64 -43q-3 6 -7 11t-9 10l-10 8t-11 8l43 64q9 -6 17 -12.5t15 -13.5q8 -7 14.5 -15.5t11.5 -16.5v0zM341 391l-43 -64q-5 2 -10 3.5t-10 2.5q-6 1 -11 1.5t-11 0.5v0q-6 0 -11 -0.5
t-11 -1.5q-5 -1 -10 -2.5t-10 -3.5l-43 64q10 5 20 9t21 6q10 3 21.5 4.5t22.5 1.5t22.5 -1.5t21.5 -4.5q11 -2 21 -6t20 -9v0zM156 383l43 -64q-6 -4 -11 -8l-10 -8q-5 -5 -9 -10t-7 -11l-64 43q5 8 11.5 16.5t14.5 15.5q7 7 15 13.5t17 12.5v0zM89 310l65 -43
q-2 -5 -4 -10.5t-3 -10.5t-1.5 -10.5t-0.5 -11.5t0.5 -11t1.5 -10q1 -6 2.5 -11t3.5 -10l-64 -43q-5 10 -9 20t-6 21q-3 10 -4.5 21.5t-1.5 22.5q0 12 1.5 23t4.5 22q2 11 6 21t9 20v0zM97 124l64 43q3 -6 7.5 -11t8.5 -10q5 -5 10.5 -9t10.5 -8l-42 -63q-9 5 -17.5 11.5
t-15.5 14.5q-7 7 -13.5 15t-12.5 17v0zM170 57l44 65q4 -2 9.5 -4t10.5 -3t10.5 -1.5t11.5 -0.5v0v0q6 0 11.5 0.5t10.5 1.5t10.5 3t10.5 4l43 -65q-10 -5 -20.5 -9t-20.5 -6q-11 -3 -22 -4.5t-23 -1.5t-23 1.5t-22 4.5q-10 2 -20.5 6t-20.5 9v0zM356 66l-42 63q5 4 10.5 8
t10.5 9q4 5 8.5 10t7.5 11l64 -43q-6 -9 -12.5 -17t-13.5 -15q-7 -8 -15.5 -14.5t-17.5 -11.5v0z" />
    <glyph glyph-name="uniE64A" unicode="&#xe64a;" 
d="M256 437q-44 0 -83 -16.5t-68 -45.5t-45.5 -68t-16.5 -83t16.5 -83t45.5 -68t68 -45.5t83 -16.5t83 16.5t68 45.5t45.5 68t16.5 83t-16.5 83t-45.5 68t-68 45.5t-83 16.5v0zM256 28q-41 0 -76.5 15.5t-62.5 41.5q-26 27 -41.5 62.5t-15.5 76.5t15.5 76.5t41.5 62.5
q27 26 62.5 41.5t76.5 15.5t76.5 -15.5t62.5 -41.5q26 -27 41.5 -62.5t15.5 -76.5t-15.5 -76.5t-41.5 -62.5q-27 -26 -62.5 -41.5t-76.5 -15.5v0zM255 336q-16 0 -28.5 -5t-21.5 -14q-8 -9 -12.5 -21.5t-5.5 -28.5h19q0 11 3 21t9 17t15 11t21 4q9 0 17 -3t13 -8
q6 -6 9.5 -13t3.5 -16q0 -6 -1.5 -11.5t-3.5 -9.5q-3 -5 -6.5 -9.5t-7.5 -8.5q-9 -8 -14.5 -14t-9.5 -13q-3 -6 -4.5 -14t-2.5 -19h20q0 10 0.5 15.5t2.5 10.5q2 4 6.5 9t13.5 14q6 5 10.5 10.5t8.5 11.5q3 6 5 13t2 16q0 13 -5 23t-13 17t-19 11t-24 4v0zM256 147
q-7 0 -12 -5t-5 -12t5 -12t12 -5t12 5t5 12t-5 12t-12 5v0z" />
    <glyph glyph-name="uniE64B" unicode="&#xe64b;" 
d="M452 250v-205h-85v375h-17v-375h-85v256h-18v-256h-85v102h-17v-102h-85v153h-17v-153v0v-17h426v222h-17z" />
    <glyph glyph-name="uniE64C" unicode="&#xe64c;" 
d="M51 429v-410h410v410h-410v0zM444 412v-74l-113 -162l-77 61l-85 -120l-51 34l-50 -58v319h376v0zM68 36v31l53 61l52 -34l85 118l77 -61l109 157v-272h-376v0z" />
    <glyph glyph-name="uniE64D" unicode="&#xe64d;" 
d="M448 463q-9 0 -16.5 -3.5t-13.5 -9.5q-6 -5 -9.5 -13t-3.5 -17q0 -5 1.5 -10.5t4.5 -9.5q2 -5 5.5 -8.5t7.5 -6.5l-80 -213q-2 0 -3.5 0.5t-3.5 0.5q-8 0 -14.5 -2.5t-12.5 -7.5l-81 67q3 4 4.5 9t1.5 11q0 8 -3.5 16t-9.5 14t-13.5 9t-16.5 3t-16.5 -3t-13.5 -9
t-9.5 -14t-3.5 -16q0 -5 1 -9.5t3 -8.5t4.5 -7.5t6.5 -6.5l-86 -150q-3 1 -6.5 1.5t-7.5 0.5q-9 0 -16.5 -3t-13.5 -9t-9.5 -13.5t-3.5 -16.5t3.5 -17t9.5 -13q6 -6 13.5 -9.5t16.5 -3.5t16.5 3.5t13.5 9.5q6 5 9.5 13t3.5 17q0 5 -1 9t-3 8t-4.5 7.5t-5.5 6.5l86 150
q3 -1 6 -1.5t7 -0.5q8 0 14.5 2.5t12.5 7.5l80 -67q-2 -5 -3.5 -9.5t-1.5 -10.5q0 -9 3.5 -16.5t9.5 -13.5t13.5 -9t16.5 -3t16.5 3t13.5 9t9.5 13.5t3.5 16.5q0 6 -1.5 11t-4.5 10q-2 5 -6 8.5t-8 6.5l80 212h4h4q9 0 16.5 3t13.5 9t9.5 13.5t3.5 16.5t-3.5 17t-9.5 13
q-6 6 -13.5 9.5t-16.5 3.5v0zM64 2q-5 0 -10 2t-8 6q-3 3 -5.5 8t-2.5 10t2.5 9.5t5.5 8.5q3 3 8 5t10 2t10 -2t8 -5q4 -4 6 -8.5t2 -9.5t-2 -10t-6 -8q-3 -4 -8 -6t-10 -2v0zM192 224q-5 0 -10 2t-8 6q-4 3 -6 7.5t-2 10.5q0 5 2 9.5t6 8.5q3 3 8 5t10 2t10 -2t8 -5
q3 -4 5.5 -8.5t2.5 -9.5q0 -6 -2.5 -10.5t-5.5 -7.5q-3 -4 -8 -6t-10 -2v0zM337 105q-5 0 -10 2t-8 5q-4 4 -6 8.5t-2 9.5t2 10t6 8q3 4 8 6t10 2t10 -2t8 -6q4 -3 6 -8t2 -10t-2 -9.5t-6 -8.5q-3 -3 -8 -5t-10 -2v0zM448 395q-5 0 -10 2t-8 5q-4 4 -6 8.5t-2 9.5t2 10t6 8
q3 4 8 6t10 2t10 -2t8 -6q3 -3 5.5 -8t2.5 -10t-2.5 -9.5t-5.5 -8.5q-3 -3 -8 -5t-10 -2v0z" />
    <glyph glyph-name="uniE64E" unicode="&#xe64e;" 
d="M469 224q0 43 -16 81t-43 67q-28 29 -65.5 46t-79.5 19v0h-18v0q-42 -2 -79.5 -19t-65.5 -46q-27 -29 -43 -67t-16 -81q0 -44 16.5 -83t45.5 -68t68 -45.5t83 -16.5q16 0 30.5 2t29.5 6q14 4 27 10t26 14v0l6 4v0v0l8 5v1q19 14 35 33t28 40q11 22 17 47t6 51v0zM435 303
l-170 -67v184q28 -1 54 -10t49 -25q22 -15 39 -36t28 -46v0zM256 28q-41 0 -76.5 15.5t-62.5 41.5q-26 27 -41.5 62.5t-15.5 76.5q0 39 14.5 74t40.5 62q25 26 59 42t73 18v-199l112 -164q-11 -7 -23.5 -12.5t-25.5 -8.5q-13 -4 -26.5 -6t-27.5 -2v0zM373 67l-104 153
l173 67q2 -7 4 -15t3 -16q2 -7 2.5 -15.5t0.5 -16.5q0 -24 -5.5 -46.5t-15.5 -42.5q-11 -20 -25.5 -37.5t-32.5 -30.5v0z" />
    <glyph glyph-name="uniE64F" unicode="&#xe64f;" 
d="M256 437v0v0v0v0v0h-1q-44 0 -82.5 -16.5t-67.5 -45.5t-45.5 -68t-16.5 -83t16.5 -83t45.5 -68t67.5 -45.5t82.5 -16.5h1v0v0v0v0v0q44 0 83 16.5t68 45.5t45.5 68t16.5 83t-16.5 83t-45.5 68t-68 45.5t-83 16.5v0zM265 310q8 0 16.5 0.5t16.5 1.5t16 2.5t16 3.5
q3 -9 5 -19t3 -21t2 -22.5t1 -22.5h-76v77v0zM265 327v92q8 -3 16.5 -9.5t16.5 -17.5t15 -25.5t13 -31.5q-8 -2 -15.5 -3.5t-14.5 -2.5q-8 -1 -16 -1.5t-15 -0.5v0zM247 419v-92q-7 0 -15 0.5t-16 1.5t-15.5 2.5t-14.5 3.5q5 18 12.5 32.5t15.5 24.5q8 11 16.5 18t16.5 9v0z
M247 310v-77h-77q0 11 1 22.5t3 22.5q1 11 3 21t4 19q8 -1 16 -3t17 -3q8 -1 16.5 -1.5t16.5 -0.5v0zM153 233h-93q1 16 4 31.5t9 30.5t14 28t17 25l15 -7.5t15 -6.5q7 -3 15 -6t16 -5q-3 -10 -5 -21l-4 -22q-1 -12 -2 -23.5t-1 -23.5v0zM153 215q0 -12 1 -23.5t2 -23.5
l4 -22t5 -21q-8 -2 -16 -5t-15 -6q-8 -3 -15 -6.5l-15 -7.5q-9 12 -17 25t-14 28t-9 30.5t-4 31.5h93v0zM170 215h77v-77q-8 0 -16.5 -0.5t-16.5 -1.5q-9 -1 -17 -2.5t-16 -3.5q-2 9 -4 19t-3 21q-2 11 -3 22.5t-1 22.5v0zM247 121v-92q-8 2 -16.5 9t-16.5 18
q-8 10 -15.5 24.5t-12.5 32.5q7 2 14.5 3.5t15.5 2.5t16 1.5t15 0.5v0zM265 29v92q7 0 15 -0.5t16 -1.5q7 -1 14.5 -2.5t15.5 -3.5q-6 -17 -13 -31.5t-15 -25.5t-16.5 -17.5t-16.5 -9.5v0zM265 138v77h76q0 -11 -1 -22.5t-2 -22.5t-3 -21t-5 -19q-8 2 -16 3.5t-16 2.5
t-16.5 1.5t-16.5 0.5v0zM358 215h94q-1 -16 -4 -31.5t-9 -30.5t-14 -28t-17 -25l-15 7.5t-15 6.5t-15.5 6t-15.5 5q2 10 4.5 21t3.5 22q1 12 2 23.5t1 23.5v0zM358 233q0 12 -1 23.5t-2 23.5q-1 11 -3.5 22t-4.5 21q8 2 15.5 5t15.5 6t15 6.5l15 7.5q9 -11 17 -24.5
t14 -28.5t9 -30.5t4 -31.5h-94v0zM396 361q-7 -3 -13.5 -6t-12.5 -6q-7 -3 -14 -5.5t-14 -4.5q-4 12 -8 23t-10 21q-5 9 -10.5 17t-11.5 15q13 -3 26 -8.5t25 -11.5q12 -7 22.5 -15.5t20.5 -18.5v0zM210 415q-7 -7 -12.5 -15t-10.5 -17q-5 -10 -9.5 -21t-8.5 -23
q-7 3 -13.5 5t-13.5 5t-13 6t-13 6q10 10 20.5 18.5t22.5 14.5q12 7 24.5 12t26.5 9v0zM116 87q6 3 12.5 6t13.5 6t13.5 5.5t13.5 4.5q4 -12 8.5 -23t9.5 -21q5 -9 10.5 -17t12.5 -15q-14 4 -26.5 9t-24.5 12q-12 6 -22.5 14.5t-20.5 18.5v0zM302 33q6 7 11.5 15t10.5 17
q6 10 10 21t8 23q7 -2 14 -4.5t14 -5.5q6 -3 12.5 -6t13.5 -6q-10 -10 -20.5 -18.5t-22.5 -15.5q-12 -6 -25 -11t-26 -9v0z" />
    <glyph glyph-name="uniE650" unicode="&#xe650;" 
d="M300 420l-22 -179h97l-163 -213l22 179h-97l163 213v0zM324 480l-222 -290h113l-27 -222l222 290h-113l27 222v0z" />
    <glyph glyph-name="uniE651" unicode="&#xe651;" 
d="M499 237h-5q-2 20 -11.5 37t-23.5 30q-14 12 -32 19.5t-39 7.5q-19 0 -36 -6.5t-31 -17.5q-13 -11 -23 -26t-14 -33l-24 13q-2 1 -4 1t-4 -1l-24 -13q-4 18 -14 33t-23 26q-14 11 -31 17.5t-36 6.5q-21 0 -39 -7.5t-32 -19.5q-14 -13 -23.5 -30t-11.5 -37h-5q-5 0 -9 -4
t-4 -9t4 -9t9 -4h5q2 -20 11.5 -37t23.5 -30q14 -12 32 -19.5t39 -7.5q22 0 41.5 8.5t33.5 23.5q15 14 23 33.5t8 41.5v2.5v3.5l26 13l26 -13v-3.5v-2.5q0 -22 8 -41.5t23 -33.5q14 -15 33.5 -23.5t41.5 -8.5q21 0 39 7.5t32 19.5q14 13 23.5 30t11.5 37h5q5 0 9 4t4 9t-4 9
t-9 4v0zM124 134q-19 0 -35 7.5t-29 19.5q-12 12 -19 28t-7 35t7 35t19 28q13 12 29 19.5t35 7.5q18 0 34.5 -7.5t28.5 -19.5t19 -28t7 -35t-7 -35t-19 -28t-28.5 -19.5t-34.5 -7.5v0zM388 134q-18 0 -34.5 7.5t-28.5 19.5t-19 28t-7 35t7 35t19 28t28.5 19.5t34.5 7.5
q19 0 35 -7.5t29 -19.5q12 -12 19 -28t7 -35t-7 -35t-19 -28q-13 -12 -29 -19.5t-35 -7.5v0z" />
    <glyph glyph-name="uniE652" unicode="&#xe652;" 
d="M361 326q5 5 9.5 10.5t7.5 12.5t4.5 14t1.5 15q0 14 -5.5 26t-14.5 22q-9 9 -21.5 14.5t-26.5 5.5q-10 0 -19 -2.5t-16 -7.5q-8 -5 -14.5 -11.5t-10.5 -14.5q-4 8 -10.5 14.5t-14.5 11.5q-7 5 -16 7.5t-19 2.5q-14 0 -26.5 -5.5t-21.5 -14.5q-9 -10 -14.5 -22t-5.5 -26
q0 -8 1.5 -15t4.5 -14t7.5 -12.5t9.5 -10.5h-100v-324h410v324h-100v0zM444 309v-136h-179v136h10l42 -72l15 8l-37 64h149v0zM256 343l10 -17h-20l10 17v0zM316 429q10 0 19.5 -4t16.5 -11t11 -16.5t4 -19.5q0 -11 -4 -20.5t-11 -16.5t-16.5 -11t-19.5 -4q-11 0 -20.5 4
t-15.5 11q-7 7 -11 16.5t-4 20.5q0 10 4 19.5t11 16.5q6 7 15.5 11t20.5 4v0zM145 378q0 10 4 19.5t11 16.5t16.5 11t19.5 4q11 0 20.5 -4t15.5 -11q7 -7 11 -16.5t4 -19.5q0 -11 -4 -20.5t-11 -16.5q-6 -7 -15.5 -11t-20.5 -4q-10 0 -19.5 4t-16.5 11t-11 16.5t-4 20.5v0z
M217 309l-37 -64l15 -8l42 72h10v-136h-179v136h149v0zM68 156h179v-137h-179v137v0zM265 19v137h179v-137h-179v0z" />
    <glyph glyph-name="uniE653" unicode="&#xe653;" 
d="M427 356h-222v9q0 7 -3 13t-7 11q-5 5 -11 7.5t-13 2.5h-86q-7 0 -13 -2.5t-11 -7.5q-4 -5 -7 -11t-3 -13v-282q0 -7 3 -13t7 -11q5 -5 11 -7.5t13 -2.5h342q7 0 13 2.5t11 7.5q4 5 7 11t3 13v239q0 7 -3 13.5t-7 10.5q-5 5 -11 7.5t-13 2.5v0zM68 365q0 7 5 12t12 5h86
q7 0 12 -5t5 -12v-26h239q7 0 12 -5t5 -12v-17h-376v60v0zM427 66h-342q-7 0 -12 5t-5 12v205h376v-205q0 -7 -5 -12t-12 -5v0z" />
    <glyph glyph-name="uniE654" unicode="&#xe654;" 
d="M410 406l-12 -4l-21.5 -5t-57.5 -5q-10 0 -19 1l-18 2t-17.5 3t-17.5 4q-8 2 -17 3.5t-18 3.5l-18 2t-19 1q-37 0 -52.5 -5.5t-16.5 -6.5l-4 -3v-361h18v163q5 2 18 5t37 3q9 0 17.5 -1t17.5 -2q8 -1 16.5 -3t17.5 -4t18 -3.5t18 -3.5q9 -1 19 -2t20 -1q38 0 61 5.5
t24 6.5l6 2v205v0zM392 213q-4 -1 -11 -2.5t-16 -3.5q-9 -1 -21 -2t-25 -1q-10 0 -19 1l-18 2q-9 2 -17.5 3.5t-17.5 3.5q-8 2 -17 3.5t-18 3.5l-18 2t-19 1t-18.5 -0.5t-15.5 -1.5t-12.5 -2t-8.5 -3v170q5 2 18 5t37 3q9 0 17.5 -1t17.5 -2q8 -2 16.5 -3.5t17.5 -3.5l18 -4
t18 -3t19 -2t20 -1q12 0 23.5 0.5t20.5 2.5q10 1 17 2.5t12 2.5v-170v0z" />
    <glyph glyph-name="uniE655" unicode="&#xe655;" 
d="M307 28h-102v166l-171 226h444l-171 -226v-166v0zM222 45h68v155l154 203h-376l154 -203v-155v0z" />
    <glyph glyph-name="uniE656" unicode="&#xe656;" 
d="M405 284l-145 145h-153v-410h298v265v0v0zM260 405l113 -113h-113v113v0zM124 36v376h119v-137h145v-239h-264v0z" />
    <glyph glyph-name="uniE657" unicode="&#xe657;" 
d="M179 412v17h-128v-128h17v99l122 -122l12 12l-122 122h99zM333 429v-17h99l-122 -122l12 -12l122 122v-99h17v128h-128zM190 170l-122 -122v99h-17v-128h128v17h-99l122 122zM444 48l-122 122l-12 -12l122 -122h-99v-17h128v128h-17v-99z" />
    <glyph glyph-name="uniE658" unicode="&#xe658;" 
d="M51 19h171v171h-171v-171v0zM68 173h137v-137h-137v137v0zM375 224h17v136h-136v-17h108l-126 -126l12 -12l125 126v-107zM51 429v-205h17v188h376v-376h-188v-17h205v410h-410z" />
    <glyph glyph-name="uniE659" unicode="&#xe659;" 
d="M452 386q0 9 -3.5 16.5t-8.5 13.5q-6 6 -14 9.5t-16 3.5q-9 0 -17 -3.5t-14 -9.5q-5 -6 -8.5 -13.5t-3.5 -16.5q0 -8 2.5 -15t7.5 -12q4 -6 10.5 -9.5t13.5 -5.5v-291h17v291q7 2 13.5 5.5t10.5 9.5q5 5 7.5 12t2.5 15v0zM410 360q-6 0 -10.5 2.5t-8.5 5.5q-3 3 -5 8
t-2 10t2 10t5 8q4 4 8.5 6t10.5 2q5 0 9.5 -2t8.5 -6q3 -3 5 -8t2 -10t-2 -10t-5 -8q-4 -3 -8.5 -5.5t-9.5 -2.5v0zM111 104v291h-17v-291q-7 -2 -13.5 -5.5t-10.5 -9.5q-5 -5 -7.5 -12t-2.5 -15q0 -9 3.5 -16.5t8.5 -13.5q6 -6 14 -9.5t16 -3.5q9 0 17 3.5t14 9.5
q5 6 8.5 13.5t3.5 16.5q0 8 -2.5 15t-7.5 12q-4 6 -10.5 9.5t-13.5 5.5v0zM102 36q-5 0 -9.5 2t-8.5 6q-3 3 -5 8t-2 10t2 10t5 8q4 3 8.5 5.5t9.5 2.5q6 0 10.5 -2.5t8.5 -5.5q3 -3 5 -8t2 -10t-2 -10t-5 -8q-4 -4 -8.5 -6t-10.5 -2v0zM265 266v129h-18v-129
q-7 -2 -13 -5.5t-11 -9.5q-4 -5 -7 -12t-3 -15t3 -15t7 -12q5 -6 11 -9.5t13 -5.5v-129h18v129q7 2 13 5.5t11 9.5q4 5 7 12t3 15t-3 15t-7 12q-5 6 -11 9.5t-13 5.5v0zM256 198q-5 0 -10 2t-8 6q-4 3 -6 8t-2 10t2 10t6 8q3 4 8 6t10 2t10 -2t8 -6q4 -3 6 -8t2 -10t-2 -10
t-6 -8q-3 -4 -8 -6t-10 -2v0z" />
    <glyph glyph-name="uniE65A" unicode="&#xe65a;" 
d="M397 226q0 1 -0.5 2t-0.5 2l-140 233l-20 -34v0l-120 -200q-1 -1 -1 -1.5v-0.5q-5 -9 -9 -18.5t-7 -19.5q-2 -10 -3.5 -20.5t-1.5 -21.5q0 -33 12.5 -62.5t34.5 -51.5t51.5 -35t63.5 -13t63.5 13t51.5 35t34.5 51.5t12.5 62.5q0 11 -1.5 21t-3.5 20q-3 10 -7 19.5
t-9 18.5v0zM256 2q-30 0 -56.5 11.5t-45.5 31.5q-20 20 -31.5 46t-11.5 56q0 10 1.5 19.5t3.5 18.5t6 18t9 17v0.5v0.5l125 208l125 -208v-0.5v-0.5q5 -8 9 -17t6 -18t3.5 -18.5t1.5 -19.5q0 -30 -11.5 -56t-31.5 -46q-19 -20 -45.5 -31.5t-56.5 -11.5v0z" />
    <glyph glyph-name="uniE65B" unicode="&#xe65b;" 
d="M376 369h-239l-94 -102v-188h426v188l-93 102v0zM144 352h225l77 -85h-130q0 -12 -5 -22.5t-13 -18.5t-19 -12.5t-23 -4.5t-23 4.5t-19 12.5t-13 18.5t-5 22.5h-130l78 85v0zM452 96h-392v154h121q3 -13 10 -23.5t17 -18.5q10 -7 22.5 -11.5t25.5 -4.5t25.5 4.5
t22.5 11.5q10 8 17 18.5t10 23.5h121v-154v0z" />
    <glyph glyph-name="uniE65C" unicode="&#xe65c;" 
d="M181 267l-12 -12l87 -87l87 87l-12 12l-66 -66v270h-18v-270zM299 386v-17h111v-290h-308v290h111v17h-128v-325h342v325h-128z" />
    <glyph glyph-name="uniE65D" unicode="&#xe65d;" 
d="M486 416h-460v-17h34v-307h187v-43h-136v-17h290v17h-136v43h187v307h34v17v0zM435 109h-358v290h358v-290v0zM230 348h-102v-103h102v103v0zM213 262h-68v69h68v-69v0zM265 262h119v-17h-119v17v0zM265 348h119v-17h-119v17v0zM265 305h119v-17h-119v17v0zM128 211h256
v-17h-256v17v0zM128 160h256v-17h-256v17v0z" />
    <glyph glyph-name="uniE65E" unicode="&#xe65e;" 
d="M478 117v307h-444v-307h213v-33l-80 -45l8 -15l81 45l81 -45l8 15l-80 45v33h213v0zM51 407h410v-273h-410v273v0zM245 233l-51 71l-34 -66l-53 107l-39 -143l17 -4l27 100l48 -98l36 71l55 -76l47 158l-16 5zM375 322q-10 0 -19.5 -4.5t-16.5 -10.5q-7 -7 -11 -16.5
t-4 -20.5q0 -10 4 -19.5t11 -16.5t16.5 -11t19.5 -4q11 0 20.5 4t16.5 11t11 16.5t4 19.5q0 11 -4 20.5t-11 16.5q-7 6 -16.5 10.5t-20.5 4.5v0zM375 236q-7 0 -13 3t-11 7q-4 5 -7 11t-3 13t3 13.5t7 10.5q5 5 11 7.5t13 2.5t13.5 -2.5t11.5 -7.5q4 -4 7 -10.5t3 -13.5
t-3 -13t-7 -11q-5 -4 -11.5 -7t-13.5 -3v0z" />
    <glyph glyph-name="uniE65F" unicode="&#xe65f;" 
d="M375 429h-324v-410h410v324l-86 86v0zM341 412v-120h-170v120h170v0zM444 36h-376v376h86v-137h204v137h10l76 -76v-300v0zM290 378h18v-52h-18v52v0zM171 156h170v-17h-170v17v0zM171 105h170v-17h-170v17v0z" />
    <glyph glyph-name="uniE660" unicode="&#xe660;" 
d="M51 429v-410h410v410h-410v0zM444 412v-77h-376v77h376v0zM68 36v282h376v-282h-376v0zM179 386h26v-26h-26v26v0zM307 386h26v-26h-26v26v0zM198 257q-2 -8 -4.5 -12t-6.5 -6t-9.5 -2.5t-12.5 -1.5h-3v-14h33v-95h18v134h-15v-3v0zM298 217q-6 0 -11.5 -2t-10.5 -5l6 31
h56v17h-70l-13 -72h15l1 1q4 7 11 10.5t15 3.5q6 0 11.5 -2.5t9.5 -6.5t6 -9.5t2 -11.5t-1.5 -11.5t-5.5 -10.5q-4 -4 -9 -7t-12 -3q-6 0 -11 2t-9 6q-4 3 -6 8t-2 11v3h-18v-3q0 -10 3.5 -17.5t9.5 -13.5t14 -9t18 -3t18.5 4t14.5 10q7 6 10.5 14.5t3.5 18.5t-3 19t-9 15
t-14.5 9.5t-19.5 3.5v0z" />
    <glyph glyph-name="uniE661" unicode="&#xe661;" 
d="M452 437h-0.5h-1.5h-49v0h-339h-1.5h-0.5q-7 0 -13.5 -2.5t-10.5 -7.5q-5 -4 -7.5 -10.5t-2.5 -13.5t2.5 -13t7.5 -11l75 -75v5q0 -29 10.5 -54.5t29.5 -44.5q18 -20 43 -32t53 -13v-137h-68v-17h154v17h-68v137q28 1 53 13t43 32q19 19 29.5 44.5t10.5 54.5v-5l75 75
q5 5 7.5 11t2.5 13t-2.5 13.5t-7.5 10.5q-4 5 -10.5 7.5t-13.5 2.5v0zM111 328l-63 63q-3 2 -4 5.5t-1 6.5q0 7 4.5 12t11.5 5h1h1v0h50v-92v0zM384 309q0 -26 -10 -49.5t-28 -40.5q-17 -18 -40.5 -28t-49.5 -10t-49.5 10t-40.5 28q-18 17 -28 40.5t-10 49.5v111h256v-111v0
zM464 391l-63 -63v92h50h1h1q7 0 11.5 -5t4.5 -12q0 -3 -1 -6.5t-4 -5.5v0z" />
    <glyph glyph-name="uniE662" unicode="&#xe662;" 
d="M432 287h68l-247 147l-241 -147h62v-256h-34v-17h426v17h-34v256v0zM73 304l180 110l185 -110h-365v0zM91 31v256h51v-256h-51v0zM159 31v256h51v-256h-51v0zM227 31v256h51v-256h-51v0zM295 31v256h52v-256h-52v0zM364 31v256h51v-256h-51v0z" />
    <glyph glyph-name="uniE663" unicode="&#xe663;" 
d="M401 88v277l31 30l-12 13l-30 -30h-279v51h-17v-51h-51v-18h51v-289h290v-52h17v52h68v17h-68v0zM373 360l-262 -260v260h262v0zM123 88l261 260v-260h-261v0z" />
    <glyph glyph-name="uniE664" unicode="&#xe664;" 
d="M461 378h-410q-5 0 -9.5 -2t-8.5 -6q-3 -3 -5 -8t-2 -10v-256q0 -5 2 -10t5 -8q4 -4 8.5 -6t9.5 -2h410q5 0 9.5 2t8.5 6q3 3 5 8t2 10v256q0 5 -2 10t-5 8q-4 4 -8.5 6t-9.5 2v0zM43 309h426v-34h-426v34v0zM469 96q0 -3 -2.5 -5.5t-5.5 -2.5h-410q-3 0 -5.5 2.5
t-2.5 5.5v162h426v-162v0zM43 326v26q0 3 2.5 5.5t5.5 2.5h410q3 0 5.5 -2.5t2.5 -5.5v-26h-426v0zM77 139h170v-17h-170v17v0zM77 190h102v-17h-102v17v0zM384 122h34q7 0 12 4.5t5 11.5v1q0 7 -5 12t-12 5h-34q-7 0 -12 -5t-5 -12v-1q0 -7 5 -11.5t12 -4.5v0z" />
    <glyph glyph-name="uniE665" unicode="&#xe665;" 
d="M446 362l-87 86h-189v-69h-104v-379h276v69h104v293v0zM359 424l62 -62h-62v62v0zM84 17v345h155v-86h86v-259h-241v0zM256 355l62 -62h-62v62v0zM342 86v207l-86 86h-69v52h155v-86h86v-259h-86v0z" />
    <glyph glyph-name="uniE666" unicode="&#xe666;" 
d="M282 420v-41l12 -4q6 -1 11 -3t11 -4q5 -2 10 -4.5t9 -5.5l12 -7l30 30l36 -36l-30 -31l6 -11q3 -5 5.5 -9.5t4.5 -9.5q2 -6 3.5 -11t2.5 -10l3 -13h44v-52h-45l-3 -12q-2 -5 -3.5 -10t-3.5 -10t-4.5 -9.5t-5.5 -9.5l-7 -11l33 -33l-36 -36l-33 33l-12 -6q-4 -3 -8.5 -5
t-9.5 -4t-10 -3.5t-10 -3.5l-12 -3v-47h-52v47l-12 3q-5 2 -10 3.5t-10 3.5t-9.5 4t-8.5 5l-12 6l-33 -33l-36 36l33 33l-7 11q-3 5 -5.5 9.5t-4.5 9.5t-3.5 10t-3.5 10l-3 12h-45v52h44l3 13q1 5 2.5 10t3.5 11q2 5 4.5 9.5t5.5 9.5l6 11l-30 31l36 36l30 -30l12 7
q4 3 9 5.5t10 4.5q6 2 11 4t11 3l12 4v41h52v0zM256 147q16 0 30 6t24 17q11 10 17 24t6 30t-6 30t-17 24q-10 11 -24 17t-30 6t-30 -6t-24 -17q-11 -10 -17 -24t-6 -30t6 -30t17 -24q10 -11 24 -17t30 -6v0zM299 437h-86v-45l-12 -4t-11 -4q-6 -3 -11.5 -5.5t-10.5 -5.5
l-33 32l-60 -60l33 -33l-5.5 -11t-4.5 -11q-3 -6 -4.5 -11.5t-3.5 -11.5h-47v-86h49q1 -5 3 -10.5t5 -11.5q2 -5 4.5 -10.5t5.5 -9.5l-35 -36l60 -60l36 36q5 -3 10 -5.5t11 -4.5q5 -2 10.5 -4t10.5 -3v-51h86v51q5 1 10.5 3t10.5 4q6 2 11 4.5t10 5.5l36 -36l60 60l-35 36
q3 4 5.5 9.5t4.5 10.5q3 6 5 11.5t3 10.5h49v86h-47q-2 6 -3.5 11.5t-4.5 11.5q-2 6 -4.5 11l-5.5 11l33 33l-60 60l-33 -32q-5 3 -10.5 5.5t-11.5 5.5q-5 2 -11 4l-12 4v45v0v0zM256 164q-12 0 -23 5t-19 13t-13 19t-5 23t5 23t13 19t19 13t23 5t23 -5t19 -13t13 -19t5 -23
t-5 -23t-13 -19t-19 -13t-23 -5v0v0z" />
    <glyph glyph-name="uniE667" unicode="&#xe667;" 
d="M288 392q5 6 8 13t3 15q0 9 -3.5 17t-9.5 13q-6 6 -13.5 9.5t-16.5 3.5t-16.5 -3.5t-13.5 -9.5q-6 -5 -9.5 -13t-3.5 -17q0 -8 3 -15t8 -13q-37 -6 -68.5 -24t-54.5 -44q-23 -27 -36.5 -61.5t-13.5 -72.5q0 -43 16 -80t44 -65t65.5 -44t79.5 -16t79.5 16t65.5 44t44 65
t16 80q0 38 -13.5 72.5t-36.5 61.5q-23 26 -54.5 44t-68.5 24v0zM256 446q5 0 10 -2t8 -6q4 -3 6 -8t2 -10t-2 -9.5t-6 -8.5q-3 -3 -8 -5t-10 -2t-10 2t-8 5q-4 4 -6 8.5t-2 9.5t2 10t6 8q3 4 8 6t10 2v0zM256 2q-39 0 -73 15t-60 40q-25 26 -40 60t-15 73t15 73t40 60
q26 25 60 40t73 15t73 -15t60 -40q25 -26 40 -60t15 -73t-15 -73t-40 -60q-26 -25 -60 -40t-73 -15v0zM154 87l138 66l66 139l-139 -65l-65 -140v0zM228 206l43 -44l-82 -39l39 83v0zM284 174l-44 44l82 38l-38 -82v0z" />
    <glyph glyph-name="uniE668" unicode="&#xe668;" 
d="M427 403h-342q-7 0 -13 -2.5t-11 -7.5q-4 -5 -7 -11t-3 -13v-222q0 -7 3 -13.5t7 -10.5q5 -5 11 -7.5t13 -2.5h240l67 -68v68h35q7 0 13 2.5t11 7.5q4 4 7 10.5t3 13.5v222q0 7 -3 13t-7 11q-5 5 -11 7.5t-13 2.5v0zM444 147q0 -7 -5 -12t-12 -5h-52v-44l-43 44h-247
q-7 0 -12 5t-5 12v222q0 7 5 12t12 5h342q7 0 12 -5t5 -12v-222v0zM256 275q-7 0 -12 -5t-5 -12t5 -12t12 -5t12 5t5 12t-5 12t-12 5v0zM324 275q-7 0 -12 -5t-5 -12t5 -12t12 -5t12 5t5 12t-5 12t-12 5v0zM189 275q-7 0 -12 -5t-5 -12t5 -12t12 -5t12 5t5 12t-5 12t-12 5v0
z" />
    <glyph glyph-name="uniE669" unicode="&#xe669;" 
d="M384 164h68v137h-392v-128q0 -34 12.5 -63.5t34.5 -51.5t51.5 -34.5t63.5 -12.5q32 0 61 12t51 32q21 21 34.5 49t15.5 60v0zM384 284h51v-103h-51v103v0zM222 28q-30 0 -56.5 11.5t-46.5 30.5q-19 20 -30.5 46.5t-11.5 56.5v111h290v-111q0 -30 -11.5 -56.5t-31.5 -46.5
q-19 -19 -45.5 -30.5t-56.5 -11.5v0zM60 -6h324v17h-324v-17zM145 429h17v-77h-17v77v0zM282 429h17v-77h-17v77v0zM213 454h17v-102h-17v102v0z" />
    <glyph glyph-name="uniE66A" unicode="&#xe66a;" 
d="M286 369q24 0 45 -9t37 -25q15 -16 24 -36.5t9 -44.5v-1v0v-1.5v-1.5v-17h17q16 0 30 -6.5t24 -16.5q11 -10 17 -24t6 -30t-6 -30t-17 -24q-10 -11 -24 -17t-30 -6h-3h-313q-17 0 -32.5 7t-27.5 18q-11 12 -18 27.5t-7 32.5q0 14 4.5 26.5t11.5 23.5q8 11 18.5 19
t23.5 12l9 3l2 10q2 10 6.5 17.5t11.5 13.5q6 6 14.5 9t18.5 3q6 0 11.5 -1.5t10.5 -4.5l16 -7l7 15q8 15 18.5 27t24.5 21t29.5 13.5t31.5 4.5v0zM286 386q-19 0 -37.5 -5.5t-33.5 -15.5t-27.5 -24t-20.5 -30q-7 3 -14.5 5t-15.5 2q-13 0 -24.5 -4.5t-20.5 -11.5
q-9 -8 -15 -18.5t-8 -22.5q-15 -5 -27.5 -14.5t-21.5 -22.5q-10 -12 -15 -27.5t-5 -32.5q0 -21 8 -39.5t22 -32.5t32.5 -22t39.5 -8h317q19 0 36 7.5t30 20.5q12 12 19.5 29.5t7.5 36.5t-7.5 36t-20.5 30q-12 13 -29 20.5t-37 7.5q0 1 0.5 2t0.5 2q0 27 -10.5 51t-28.5 42
t-42 28.5t-52 10.5v0v0z" />
    <glyph glyph-name="uniE66B" unicode="&#xe66b;" 
d="M256 429q-42 0 -79.5 -16t-65.5 -44t-44 -65.5t-16 -79.5t16 -79.5t44 -65.5t65.5 -44t79.5 -16t79.5 16t65.5 44t44 65.5t16 79.5t-16 79.5t-44 65.5t-65.5 44t-79.5 16v0zM256 36q-39 0 -73 15t-60 40q-25 26 -40 60t-15 73t15 73t40 60q26 25 60 40t73 15t73 -15
t60 -40q25 -26 40 -60t15 -73t-15 -73t-40 -60q-26 -25 -60 -40t-73 -15v0zM256 207h-102v-17h119v170h-17v-153z" />
    <glyph glyph-name="uniE66C" unicode="&#xe66c;" 
d="M256 437q-44 0 -83 -16.5t-68 -45.5t-45.5 -68t-16.5 -83t16.5 -83t45.5 -68t68 -45.5t83 -16.5t83 16.5t68 45.5t45.5 68t16.5 83t-16.5 83t-45.5 68t-68 45.5t-83 16.5v0zM256 28q-41 0 -76.5 15.5t-62.5 41.5q-26 27 -41.5 62.5t-15.5 76.5t15.5 76.5t41.5 62.5
q27 26 62.5 41.5t76.5 15.5t76.5 -15.5t62.5 -41.5q26 -27 41.5 -62.5t15.5 -76.5t-15.5 -76.5t-41.5 -62.5q-27 -26 -62.5 -41.5t-76.5 -15.5v0zM363 300l-137 -133l-48 48q-4 4 -9.5 4t-8.5 -4q-4 -3 -4 -8.5t4 -9.5l57 -57q1 -2 3.5 -2.5t5.5 -0.5q2 0 4.5 0.5t3.5 2.5
l146 142q4 3 4 8.5t-3 9.5q-4 4 -9.5 4t-8.5 -4v0z" />
    <glyph glyph-name="uniE66D" unicode="&#xe66d;" 
d="M341 309v128h-298v-230h128v-128h177l68 -68h11v68h42v230h-128v0zM60 224v196h264v-111h-153v-85h-111v0zM452 96h-42v-55l-55 55h-167v196h264v-196v0z" />
    <glyph glyph-name="uniE66E" unicode="&#xe66e;" 
d="M490 326h-359l-29 120h-80v-17h67l83 -343q-6 -2 -12 -6t-10 -9q-4 -6 -6.5 -12.5t-2.5 -13.5q0 -9 3.5 -16.5t9.5 -13.5t13.5 -9.5t16.5 -3.5t16.5 3.5t13.5 9.5t9.5 13.5t3.5 16.5q0 7 -2.5 13.5t-6.5 11.5h120q-4 -5 -6.5 -11.5t-2.5 -13.5q0 -9 3.5 -16.5t9.5 -13.5
q5 -6 13 -9.5t17 -3.5t16.5 3.5t13.5 9.5t9 13.5t3 16.5t-3 16.5t-9 13.5t-13.5 9.5t-16.5 3.5v0h-183l-8 34h240l69 204v0zM210 45q0 -5 -2 -10t-6 -8q-3 -4 -8 -6t-10 -2t-9.5 2t-8.5 6q-3 3 -5 8t-2 10t2 9.5t5 8.5q4 3 8.5 5t9.5 2t10 -2t8 -5q4 -4 6 -8.5t2 -9.5v0z
M397 45q0 -5 -2 -10t-5 -8q-4 -4 -8.5 -6t-9.5 -2q-6 0 -10.5 2t-7.5 6q-4 3 -6 8t-2 10t2 9.5t6 8.5q3 3 7.5 5t10.5 2q5 0 9.5 -2t8.5 -5q3 -4 5 -8.5t2 -9.5v0zM177 139l-41 170h330l-58 -170h-231v0z" />
    <glyph glyph-name="uniE66F" unicode="&#xe66f;" 
d="M435 335h-70l-41 41h-0.5h-0.5v0q-4 5 -10.5 7.5t-13.5 2.5h-85q-7 0 -13.5 -3t-11.5 -8v0l-40 -40h-72q-7 0 -13.5 -2.5t-10.5 -7.5q-5 -5 -7.5 -11t-2.5 -13v-205q0 -7 2.5 -13t7.5 -11q4 -5 10.5 -7.5t13.5 -2.5h358q7 0 13.5 2.5t10.5 7.5q5 5 7.5 11t2.5 13v205
q0 7 -2.5 13t-7.5 11q-4 5 -10.5 7.5t-13.5 2.5v0zM452 96q0 -7 -5 -12t-12 -5h-358q-7 0 -12 5t-5 12v205q0 7 5 12t12 5h79l26 26v-2l20 21q2 3 5.5 4.5t6.5 1.5h85q4 0 7 -1.5t5 -3.5l46 -46h78q7 0 12 -5t5 -12v-205v0zM256 318q-23 0 -43 -9t-35 -24t-24 -35t-9 -43
t9 -43t24 -35q15 -16 35 -24.5t43 -8.5t43 8.5t35 24.5q15 15 24 35t9 43t-9 43t-24 35t-35 24t-43 9v0zM256 113q-19 0 -36.5 7.5t-29.5 20.5q-13 12 -20.5 29.5t-7.5 36.5t7.5 36.5t20.5 29.5q12 13 29.5 20.5t36.5 7.5t36.5 -7.5t29.5 -20.5q13 -12 20.5 -29.5t7.5 -36.5
t-7.5 -36.5t-20.5 -29.5q-12 -13 -29.5 -20.5t-36.5 -7.5v0zM256 284q-16 0 -30 -6t-24 -17q-11 -10 -17 -24t-6 -30t6 -30t17 -24q10 -11 24 -17t30 -6t30 6t24 17q11 10 17 24t6 30t-6 30t-17 24q-10 11 -24 17t-30 6v0zM256 147q-12 0 -23 5t-19 13t-13 19t-5 23t5 23
t13 19t19 13t23 5t23 -5t19 -13t13 -19t5 -23t-5 -23t-13 -19t-19 -13t-23 -5v0z" />
    <glyph glyph-name="uniE670" unicode="&#xe670;" 
d="M375 -6q-15 0 -39 9.5t-53 28.5t-60.5 48.5t-60.5 69.5q-28 38 -49 70t-34 60q-14 27 -21 50t-7 41q0 14 4.5 25t10.5 19q7 7 14 12.5t12 9.5l3 2q12 9 27.5 12t22.5 3q12 0 18 -5.5t9 -12.5q3 -5 18.5 -38.5t17.5 -39.5q2 -4 2.5 -9.5t-0.5 -10.5q-2 -6 -5 -11t-8 -9
l-2 -1q-6 -4 -13.5 -10.5t-8.5 -14.5q-1 -4 0.5 -8.5t4.5 -8.5q9 -12 25 -32.5t33 -41.5t31.5 -38t19.5 -21q4 -4 8 -6t8 -2q5 -1 9 0t7 4q7 6 10 9.5l3 3.5h1q1 1 6 4t14 3q6 0 12.5 -2.5t12.5 -6.5q17 -11 44.5 -29.5l27.5 -18.5l1 -1q5 -4 9 -15t-4 -26
q-4 -8 -12.5 -19.5t-19.5 -21.5t-23.5 -17t-25.5 -7v0zM145 437q-6 0 -18.5 -2.5t-21.5 -8.5l-3 -3q-5 -3 -11 -7.5t-11 -11.5q-5 -6 -8.5 -14t-3.5 -19q0 -17 7 -38.5t20 -47.5t33 -57t47 -68q30 -39 60.5 -67.5t57.5 -46.5t48.5 -26.5t33.5 -8.5q9 0 19.5 6t19.5 14
q9 9 16 18.5t11 17.5q4 9 2 14t-3 6q-4 3 -30 20.5t-41 27.5q-4 3 -8 4.5t-8 1.5t-6 -1t-3 -2l-4.5 -4.5t-9.5 -8.5t-13 -7t-14 -1q-7 0 -14.5 3t-13.5 9q-5 5 -20 23t-33 39q-17 22 -33.5 42.5t-24.5 31.5q-5 7 -7 14.5t-1 15.5q1 6 4.5 12t7.5 10q4 5 8.5 8t8.5 6l2 1
q6 5 6 11.5t-1 8.5q-2 5 -17 38t-18 39q-2 4 -4.5 6t-7.5 2v0z" />
    <glyph glyph-name="uniE671" unicode="&#xe671;" 
d="M137 318h238v68h-238v-68v0zM154 369h204v-34h-204v34v0zM375 429h-238q-7 0 -13.5 -3t-11.5 -7q-4 -5 -7 -11t-3 -13v-342q0 -7 3 -13t7 -11q5 -4 11.5 -7t13.5 -3h238q7 0 13.5 3t11.5 7q4 5 7 11t3 13v342q0 7 -3 13t-7 11q-5 4 -11.5 7t-13.5 3v0zM392 53
q0 -7 -5 -12t-12 -5h-238q-7 0 -12 5t-5 12v342q0 7 5 12t12 5h238q7 0 12 -5t5 -12v-342v0zM154 241v51h-17v-68h68v17h-17h-34zM154 156v51h-17v-68h68v17h-17h-34zM154 70v52h-17v-69h68v17h-17h-34zM239 241v51h-17v-68h68v17h-17h-34zM324 241v51h-17v-68h68v17h-17
h-34zM239 156v51h-17v-68h68v17h-17h-34zM239 70v52h-17v-69h68v17h-17h-34zM324 70v137h-17v-154h68v17h-17h-34z" />
    <glyph glyph-name="uniE672" unicode="&#xe672;" 
d="M43 437v-426h426v426h-426v0zM452 420v-68h-392v68h392v0zM60 28v307h392v-307h-392v0zM154 395h264v-17h-264v17v0zM85 395h17v-17h-17v17v0zM120 395h17v-17h-17v17v0z" />
    <glyph glyph-name="uniE673" unicode="&#xe673;" 
d="M478 384l-222 81l-230 -84v-315l230 -83l230 83v315l-8 3v0zM247 4l-204 74v284l204 -74v-284v0zM256 303l-197 72l197 72l197 -72l-197 -72v0zM469 78l-204 -74v284l204 74v-284v0z" />
    <glyph glyph-name="uniE674" unicode="&#xe674;" 
d="M461 416h-410v-111h17v-273h376v273h17v111v0zM427 49h-342v256h342v-256v0zM444 322h-376v77h376v-77v0zM194 194h124q7 0 12.5 2.5t10.5 6.5q4 4 6.5 10t2.5 12v6q0 7 -2.5 12.5t-6.5 9.5q-5 4 -10.5 6.5t-12.5 2.5h-124q-6 0 -12 -2.5t-10 -6.5q-5 -4 -7.5 -9.5
t-2.5 -12.5v-6q0 -6 2.5 -12t7.5 -10q4 -4 10 -6.5t12 -2.5v0zM179 231q0 6 4.5 10t10.5 4h124q6 0 10.5 -4t4.5 -10v-6q0 -6 -4.5 -10t-10.5 -4h-124q-6 0 -10.5 4t-4.5 10v6v0z" />
    <glyph glyph-name="uniE675" unicode="&#xe675;" 
d="M435 420h-153q-8 0 -14.5 -3t-11.5 -9q-5 6 -11.5 9t-14.5 3h-153q-7 0 -13.5 -2.5t-10.5 -7.5q-5 -4 -7.5 -10.5t-2.5 -13.5v-290q0 -7 2.5 -13.5t7.5 -10.5q4 -5 10.5 -7.5t13.5 -2.5h153h1v0q7 0 11.5 -5t4.5 -12v-17h18v9v0v8q0 7 4.5 12t11.5 5h0.5h0.5h153
q7 0 13.5 2.5t10.5 7.5q5 4 7.5 10.5t2.5 13.5v290q0 7 -2.5 13.5t-7.5 10.5q-4 5 -10.5 7.5t-13.5 2.5v0zM60 96v290q0 7 5 12t12 5h153q7 0 12 -5t5 -12v-290q0 -7 -5 -12t-12 -5h-153q-7 0 -12 5t-5 12v0zM452 96q0 -7 -5 -12t-12 -5h-153q-7 0 -12 5t-5 12v290q0 7 5 12
t12 5h153q7 0 12 -5t5 -12v-290v0z" />
    <glyph glyph-name="uniE676" unicode="&#xe676;" 
d="M418 271q-4 0 -8.5 -0.5t-8.5 -1.5l-8 -2l-8 -2l-42 83h32v17h-60l17 -34h-148l-8 17h29v17h-57l19 -38v-0.5v-0.5l-36 -63q-5 2 -9 3.5t-9 2.5t-9.5 1.5t-9.5 0.5q-19 0 -36.5 -7.5t-29.5 -20.5q-13 -12 -20.5 -29.5t-7.5 -36.5t7.5 -36t20.5 -30q12 -13 29.5 -20.5
t36.5 -7.5q18 0 34.5 6.5t28.5 18.5q13 12 21 27.5t9 33.5h70q2 0 4 1t4 3l78 136l26 -52q-10 -6 -18 -14.5t-14 -18.5q-6 -11 -9.5 -22.5t-3.5 -24.5q0 -19 7.5 -36t20.5 -30q12 -13 29.5 -20.5t36.5 -7.5t36.5 7.5t29.5 20.5q13 13 20.5 30t7.5 36t-7.5 36.5t-20.5 29.5
q-12 13 -29.5 20.5t-36.5 7.5v0zM176 309l62 -123h-51q-1 11 -4 21t-9 19q-5 8 -12.5 15.5t-15.5 13.5l30 54v0zM170 186h-64l31 54q7 -4 12.5 -10t10.5 -13q4 -7 6.5 -15t3.5 -16v0zM94 100q-16 0 -30 6t-24 17q-11 10 -17 24t-6 30t6 30t17 24q10 11 24 17t30 6
q7 0 14.5 -1.5t13.5 -4.5l-38 -67q-2 -2 -2 -4t2 -4q1 -2 3 -3t4 -1h79q-1 -15 -8 -27.5t-17 -21.5t-23 -14.5t-28 -5.5v0zM255 191l-62 123h133l-71 -123v0zM418 100q-16 0 -30 6t-24 17q-11 10 -17 24t-6 30q0 10 2.5 19.5t7.5 18.5q5 8 11.5 15t14.5 12l36 -72l15 8
l-36 71q6 3 12.5 4t13.5 1q16 0 30 -6t24 -17q11 -10 17 -24t6 -30t-6 -30t-17 -24q-10 -11 -24 -17t-30 -6v0z" />
    <glyph glyph-name="uniE677" unicode="&#xe677;" 
d="M401 138v137q0 27 -9 51t-25 43t-38 31.5t-47 17.5v11q0 7 -5 12t-12 5h-18q-7 0 -12 -5t-5 -12v-11q-25 -5 -47 -18t-38 -31q-16 -19 -25 -43t-9 -51v-137l-60 -48v-28h410v28l-60 48v0zM444 79h-376v2l60 49v145q0 27 10 50t28 41q17 17 40.5 27t49.5 10q27 0 50 -10
t41 -27q17 -18 27 -41t10 -50v-145l60 -49v-2v0zM256 2q9 0 16.5 3.5t13.5 9.5t9.5 13.5t3.5 16.5h-86q0 -9 3.5 -16.5t9.5 -13.5t13.5 -9.5t16.5 -3.5v0z" />
    <glyph glyph-name="uniE678" unicode="&#xe678;" 
d="M0 310v-172q0 -5 2 -9.5t6 -7.5q3 -4 7.5 -6t10.5 -2h213v222h-213q-6 0 -10.5 -2t-7.5 -6q-4 -3 -6 -7.5t-2 -9.5v0zM222 130h-196q-4 0 -6.5 2.5t-2.5 5.5v172q0 3 2.5 5.5t6.5 2.5h196v-188v0zM512 224q0 11 -4 20t-11 16t-16.5 11t-19.5 4v35q0 5 -2 9.5t-5 7.5
q-4 4 -8.5 6t-9.5 2h-180v-17h180q3 0 5.5 -2.5t2.5 -5.5v-172q0 -3 -2.5 -5.5t-5.5 -2.5h-180v-17h180q5 0 9.5 2t8.5 6q3 3 5 7.5t2 9.5v35q10 0 19.5 4t16.5 11t11 16t4 20v0zM461 190v68q7 0 13 -2.5t11 -7.5q4 -5 7 -11t3 -13t-3 -13t-7 -11q-5 -5 -11 -7.5t-13 -2.5v0
z" />
    <glyph glyph-name="uniE679" unicode="&#xe679;" 
d="M256 437q-44 0 -83 -16.5t-68 -45.5t-45.5 -68t-16.5 -83t16.5 -83t45.5 -68t68 -45.5t83 -16.5t83 16.5t68 45.5t45.5 68t16.5 83t-16.5 83t-45.5 68t-68 45.5t-83 16.5v0zM452 233h-153q1 21 4.5 42.5t10.5 42.5q6 20 16 39.5t22 37.5q22 -12 39.5 -29.5t30.5 -37.5
q14 -21 21.5 -45t8.5 -50v0zM256 420q11 0 21.5 -1t20.5 -3l20 -6t19 -7q-13 -19 -23 -39.5t-17 -41.5q-7 -22 -11 -44t-4 -45h-52q0 23 -4 45t-11 44q-7 21 -17 41.5t-23 39.5q9 4 19 7l20 6q10 2 20.5 3t21.5 1v0zM160 395q12 -18 22 -37.5t16 -39.5q7 -21 10.5 -42.5
t4.5 -42.5h-153q1 26 8.5 50t20.5 45q14 20 31.5 37.5t39.5 29.5v0zM60 215h153q0 -22 -4 -43t-11 -42q-6 -20 -16 -39.5t-22 -37.5q-22 12 -39.5 29t-30.5 38q-14 21 -21.5 45t-8.5 50v0zM256 28q-11 0 -21.5 1t-20.5 3l-20 6t-19 7q13 19 23 39.5t17 41.5q7 22 11 44t4 45
h52q0 -23 4 -45t11 -44q7 -21 17 -41.5t23 -39.5q-9 -4 -19 -7l-20 -6q-10 -2 -20.5 -3t-21.5 -1v0zM352 53q-12 18 -22 37.5t-16 39.5q-7 21 -11 42t-4 43h153q-1 -26 -9 -50t-21 -45t-30.5 -38t-39.5 -29v0z" />
    <glyph glyph-name="uniE67A" unicode="&#xe67a;" 
d="M230 353v-70h17q44 -1 78.5 -11t59.5 -30t40.5 -49.5t22.5 -69.5q-24 28 -50 43.5t-51 22.5q-26 7 -51.5 8t-48.5 1h-17v-69l-158 112l158 112v0zM247 386l-204 -145l204 -145v85q31 0 60.5 -2.5t57.5 -13.5q28 -12 54 -36t50 -67q0 28 -5 68t-27 77q-22 38 -66.5 65
t-123.5 28v86v0z" />
    <glyph glyph-name="uniE67B" unicode="&#xe67b;" 
d="M256 424l-230 -400h460l-230 400v0zM256 390l201 -349h-402l201 349v0zM247 262h18v-119h-18v119v0zM256 117q-5 0 -9 -3.5t-4 -8.5q0 -6 4 -9.5t9 -3.5t9 3.5t4 9.5q0 5 -4 8.5t-9 3.5v0z" />
    <glyph glyph-name="uniE67C" unicode="&#xe67c;" 
d="M480 88l-34 70l-76 -31l7 -15l50 20q-9 -25 -24.5 -46.5t-36.5 -37.5t-46.5 -26t-53.5 -11v307q13 2 24 8t19 15t12.5 20.5t4.5 24.5q0 14 -5.5 26.5t-14.5 21.5q-9 10 -21.5 15t-26.5 5t-26.5 -5t-21.5 -15q-10 -9 -15 -21.5t-5 -26.5q0 -13 4.5 -24.5t12.5 -20.5
t19 -15t23 -8v-307q-27 1 -52.5 10.5t-46.5 25.5t-36.5 37t-24.5 46l46 -18l7 15l-76 31l-34 -70l15 -8l24 50q10 -30 28 -55t42 -43q25 -18 54.5 -28t62.5 -10q32 0 61 9.5t53 27.5q25 17 43 41t28 53l22 -45l15 8v0zM207 386q0 11 4 20t11 16t16 11t20 4q10 0 19.5 -4
t16.5 -11t11 -16t4 -20t-4 -20t-11 -16t-16.5 -11t-19.5 -4q-11 0 -20 4t-16 11t-11 16t-4 20v0z" />
    <glyph glyph-name="uniE67D" unicode="&#xe67d;" 
d="M26 360v-341h460v341h-460v0zM469 36h-426v307h426v-307v0zM60 395h392v-17h-392v17v0zM94 429h324v-17h-324v17v0z" />
    <glyph glyph-name="uniE67E" unicode="&#xe67e;" 
d="M256 386q-39 0 -73 -14.5t-60 -40.5q-25 -25 -40 -59.5t-15 -73.5q0 -17 3.5 -34t8.5 -32q6 -16 14.5 -30t19.5 -27l-44 -53l13 -11l43 52q13 -12 27.5 -21.5t31.5 -16.5q16 -7 34 -10.5t37 -3.5t37 3.5t34 10.5q17 7 31.5 16.5t27.5 21.5l42 -52l14 11l-44 54
q10 12 18.5 26t14.5 30q6 15 9.5 32t3.5 34q0 39 -15 73.5t-40 59.5q-26 26 -60 40.5t-73 14.5v0zM256 28q-35 0 -66.5 13.5t-54.5 36.5t-36.5 54t-13.5 66q0 36 13.5 67t36.5 54t54.5 36.5t66.5 13.5t66 -13.5t54 -36.5q24 -23 37 -54t13 -67q0 -35 -13 -66t-37 -54
q-23 -23 -54 -36.5t-66 -13.5v0zM179 437h-51q-18 0 -33.5 -6.5t-26.5 -18.5q-12 -11 -18.5 -26.5t-6.5 -33.5v-51h24l112 112v24v0zM162 420l-102 -102v34q0 14 5.5 26.5t14.5 21.5t21.5 14.5t26.5 5.5h34v0v0zM384 437h-51v-24l112 -112h24v51q0 18 -6.5 33.5t-18.5 26.5
q-11 12 -26.5 18.5t-33.5 6.5v0zM452 318v0l-102 102v0h34q14 0 26.5 -5.5t21.5 -14.5t14.5 -21.5t5.5 -26.5v-34v0zM247 198h-94v-17h112v154h-18v-137z" />
    <glyph glyph-name="uniE67F" unicode="&#xe67f;" 
d="M461 403h-410v-256h139l-88 -102h308l-88 102h139v256v0zM140 62l116 136l116 -136h-232v0zM444 164h-137l-51 60l-51 -60h-137v222h376v-222v0z" />
    <glyph glyph-name="uniE680" unicode="&#xe680;" 
d="M172 321l-13 -13l85 -84l-84 -84l12 -12l84 84l84 -84l12 12l-84 84l85 84l-13 13l-84 -85z" />
    <glyph glyph-name="uniE681" unicode="&#xe681;" 
d="M105 375q-31 -31 -46.5 -70.5t-15.5 -80.5t15.5 -80.5t46.5 -70.5t70.5 -46.5t80.5 -15.5t80.5 15.5t70.5 46.5t46.5 70.5t15.5 80.5t-15.5 80.5t-46.5 70.5t-70.5 46.5t-80.5 15.5t-80.5 -15.5t-70.5 -46.5v0zM395 85q-29 -28 -65 -42.5t-74 -14.5t-74 14.5t-65 42.5
q-28 29 -42.5 65t-14.5 74t14.5 74t42.5 65q29 28 65 42.5t74 14.5t74 -14.5t65 -42.5q28 -29 42.5 -65t14.5 -74t-14.5 -74t-42.5 -65v0zM172 321l-13 -13l85 -84l-84 -84l12 -12l84 84l84 -84l12 12l-84 84l85 84l-13 13l-84 -85z" />
    <glyph glyph-name="uniE682" unicode="&#xe682;" 
d="M268 275l-12 12l-96 -96l12 -13l84 85l84 -84l12 12l-48 48z" />
    <glyph glyph-name="uniE683" unicode="&#xe683;" 
d="M256 11q44 0 83 16.5t67 45.5q29 29 46 68t17 83t-17 83t-46 68q-28 29 -67 46t-83 17q-45 0 -83.5 -17t-67.5 -46t-46 -68t-17 -83t17 -83t46 -68t67.5 -45.5t83.5 -16.5v0zM256 420q40 0 76 -15t62 -42q27 -27 42.5 -62.5t15.5 -76.5q0 -40 -15.5 -76t-42.5 -63
q-26 -26 -62 -41.5t-76 -15.5q-41 0 -76.5 15.5t-62.5 41.5q-27 27 -42.5 63t-15.5 76q0 41 15.5 76.5t42.5 62.5t62.5 42t76.5 15v0zM268 275l-12 12l-97 -96l12 -13l85 85l84 -84l12 12l-48 48z" />
    <glyph glyph-name="uniE684" unicode="&#xe684;" 
d="M307 212l12 12l-97 96l-12 -12l84 -84l-84 -84l12 -12l49 48z" />
    <glyph glyph-name="uniE685" unicode="&#xe685;" 
d="M42 224q0 -44 17 -83t46 -68t67.5 -45.5t83.5 -16.5q44 0 83 16.5t68 45.5q28 29 45 68t17 83t-17 83t-45 68q-29 29 -68 46t-83 17q-45 0 -83.5 -17t-67.5 -46t-46 -68t-17 -83v0zM452 224q0 -40 -15.5 -76t-42.5 -63q-26 -26 -62 -41.5t-76 -15.5q-41 0 -76.5 15.5
t-62.5 41.5q-27 27 -42.5 63t-15.5 76q0 41 15.5 76.5t42.5 62.5t62.5 42t76.5 15q40 0 76 -15t62 -42q27 -27 42.5 -62.5t15.5 -76.5v0zM307 212l12 12l-97 97l-12 -12l84 -85l-84 -84l12 -12l49 48z" />
    <glyph glyph-name="uniE686" unicode="&#xe686;" 
d="M205 236l-12 -12l96 -96l12 12l-84 84l84 84l-12 12l-48 -48z" />
    <glyph glyph-name="uniE687" unicode="&#xe687;" 
d="M469 224q0 44 -17 83t-46 68q-28 29 -67 46t-83 17q-45 0 -83.5 -17t-67.5 -46t-46 -68t-17 -83t17 -83t46 -68t67.5 -45.5t83.5 -16.5q44 0 83 16.5t68 45.5q28 29 45 68t17 83v0zM59 224q0 41 15.5 76.5t42.5 62.5t62.5 42t76.5 15q40 0 76 -15t62 -42
q27 -27 42.5 -62.5t15.5 -76.5q0 -40 -15.5 -76t-42.5 -63q-26 -26 -62 -41.5t-76 -15.5q-41 0 -76.5 15.5t-62.5 41.5q-27 27 -42.5 63t-15.5 76v0zM205 236l-12 -12l96 -96l12 12l-84 84l84 84l-12 12l-48 -48z" />
    <glyph glyph-name="uniE688" unicode="&#xe688;" 
d="M244 173l12 -12l96 97l-12 12l-84 -85l-84 84l-12 -12l48 -48z" />
    <glyph glyph-name="uniE689" unicode="&#xe689;" 
d="M256 438q-45 0 -83.5 -17t-67.5 -46t-46 -68t-17 -83t17 -83t46 -68t67.5 -45.5t83.5 -16.5q44 0 83 16.5t67 45.5q29 29 46 68t17 83t-17 83t-46 68q-28 29 -67 46t-83 17v0zM256 28q-41 0 -76.5 15.5t-62.5 41.5q-27 27 -42.5 63t-15.5 76q0 41 15.5 76.5t42.5 62.5
t62.5 42t76.5 15q40 0 76 -15t62 -42q27 -27 42.5 -62.5t15.5 -76.5q0 -40 -15.5 -76t-42.5 -63q-26 -26 -62 -41.5t-76 -15.5v0zM243 173l12 -12l97 97l-12 12l-85 -85l-84 84l-12 -12l49 -48z" />
    <glyph glyph-name="uniE68A" unicode="&#xe68a;" 
d="M192 221l-12 13l77 76l76 -76l-12 -12l-56 55v-223h-17v223l-56 -55v-1zM419 327v2v2q0 27 -10 51.5t-28 41.5q-18 18 -42.5 28.5t-51.5 10.5q-20 0 -38 -5.5t-33 -15.5q-16 -10 -28 -23.5t-20 -30.5q-7 3 -15 5t-16 2q-12 0 -23.5 -4t-20.5 -12t-15 -18.5t-8 -22.5
q-15 -5 -27.5 -14.5t-22.5 -21.5q-9 -13 -14 -28.5t-5 -31.5q0 -22 8 -40.5t22 -32.5t32.5 -22t39.5 -8h111v17h-111q-18 0 -33.5 7t-26.5 18q-12 12 -18.5 27.5t-6.5 33.5q0 13 4 26t12 23q7 11 18 19t24 12l9 4l2 10q1 9 6 17t11 13q7 6 15.5 9t17.5 3q6 0 12 -1t11 -4
l16 -8l7 16q7 15 18 27t25 20q13 9 28.5 13.5t32.5 4.5q24 0 45 -9t36 -25q16 -15 25 -36t9 -45v-0.5v-0.5v-1.5v-1.5v-17h17q16 0 30 -6t24 -17q11 -10 17 -24t6 -30t-6 -30t-17 -24q-10 -11 -24 -17t-30 -6h-120v-17h120q20 0 37 7.5t29 20.5q13 12 20.5 29.5t7.5 36.5
t-7.5 36.5t-20.5 29.5q-12 13 -29.5 20.5t-36.5 7.5v0z" />
    <glyph glyph-name="uniE68B" unicode="&#xe68b;" 
d="M321 74l12 -12l-76 -76l-77 76l12 12l56 -56v224h17v-224l56 56v0zM419 327v2v2q0 27 -10.5 51.5t-28.5 41.5q-18 18 -42 28.5t-51 10.5q-20 0 -38 -5.5t-34 -15.5q-15 -10 -27 -23.5t-20 -30.5q-7 3 -15 5t-16 2q-13 0 -24 -4t-20 -12t-15 -18.5t-8 -22.5
q-15 -5 -28 -14.5t-22 -21.5q-9 -13 -14 -28.5t-5 -31.5q0 -22 8 -40.5t22 -32.5q13 -14 32 -22t40 -8h111v17h-111q-18 0 -33.5 7t-26.5 18q-12 12 -18.5 27.5t-6.5 33.5q0 13 4 26t12 23q7 11 17.5 19t23.5 12l10 4l2 10q1 9 5.5 17t11.5 13q7 6 15.5 9t17.5 3q6 0 12 -1
t11 -4l16 -8l7 16q7 15 18 27t25 20q13 9 28.5 13.5t32.5 4.5q24 0 45 -9t36 -25q16 -15 25 -36t9 -45v-0.5v-0.5v-1.5v-1.5l-1 -17h18q16 0 30 -6t24 -17q10 -10 16 -24t6 -30t-6 -30t-16 -24t-24 -16.5t-30 -6.5h-120v-17h120q19 0 36 7.5t30 20.5t20 30t7 36t-7 36.5
t-20 29.5q-13 13 -30 20.5t-36 7.5v0z" />
    <glyph glyph-name="uniE68C" unicode="&#xe68c;" horiz-adv-x="470" 
d="M269 308q-11 0 -20 -4t-16 -11t-11 -16t-4 -19q0 -11 4 -20t11 -16t16 -11t20 -4q10 0 19 4t16 11t11 16t4 20q0 10 -4 19t-11 16t-16 11t-19 4v0zM269 224q-7 0 -13.5 2.5t-10.5 7.5q-5 4 -7.5 10.5t-2.5 13.5t2.5 13t7.5 10q4 5 10.5 7.5t13.5 2.5q6 0 12.5 -2.5
t10.5 -7.5q5 -4 7.5 -10t2.5 -13t-2.5 -13.5t-7.5 -10.5q-4 -5 -10.5 -7.5t-12.5 -2.5v0zM67 383v-251h403v251h-403v0zM453 327v-179h-369v219h369v-40v0zM380 115h-330v235h-16v-252h402v17h-16h-40zM346 81h-329v235h-17v-251h403v16h-17h-40zM109 349h50v-16h-50v16v0z
M109 182h50v-17h-50v17v0zM378 349h50v-16h-50v16v0zM378 182h50v-17h-50v17v0z" />
    <glyph glyph-name="uniE68D" unicode="&#xe68d;" horiz-adv-x="258" 
d="M119 -31v233l-102 -102l-12 12l108 108l-113 113l12 12l107 -107v241l139 -138l-121 -121l117 -117l-135 -134v0zM136 197v-188l94 94l-94 94v0zM136 439v-196l98 98l-98 98v0z" />
    <glyph glyph-name="uniE68E" unicode="&#xe68e;" horiz-adv-x="353" 
d="M185 299h117l51 60l-51 58h-117v34h-17v-34h-151v-118h151v-16h-118l-50 -59l50 -59h118v-168h17v168h151v118h-151v16v0zM34 316v84h260l36 -41l-36 -43h-260v0zM319 266v-84h-261l-36 42l36 42h261v0zM50 383h84v-16h-84v16v0zM218 249h84v-17h-84v17v0z" />
    <glyph glyph-name="uniE68F" unicode="&#xe68f;" horiz-adv-x="437" 
d="M269 283h117v-17h-117v17v0zM269 182h117v-17h-117v17v0zM269 232h83v-16h-83v16v0zM252 383v51h-67v-51h-185v-369h436v369h-184v0zM420 367v-34h-168v34h168v0zM201 417h34v-84h-34v84v0zM17 367h168v-34h-168v34v0zM17 31v285h403v-285h-403v0zM247 106q-4 1 -11.5 4
t-15.5 6q-8 2 -16 5t-15 5q-1 0 -1.5 1t-0.5 6q0 4 1.5 7.5t2.5 6.5q2 4 4 9.5t2 11.5q2 2 4.5 7t4.5 14q2 7 1.5 11t-1.5 6q0 1 -0.5 1h-0.5q0 2 0.5 10t1.5 15q1 5 -0.5 14.5t-8.5 18.5q-5 5 -13.5 11t-24.5 7h-11q-15 -1 -23.5 -7t-13.5 -11q-7 -9 -8.5 -18.5t-0.5 -14.5
q1 -7 1.5 -15t0.5 -10h-0.5t-0.5 -1q-1 -2 -1.5 -6t1.5 -11q2 -9 4.5 -14t4.5 -7q0 -6 2 -11.5t4 -9.5q1 -2 1.5 -6t0.5 -9q0 -4 -0.5 -5t-1.5 -1q-6 -2 -14.5 -5t-17.5 -6q-8 -3 -15 -5.5t-11 -4.5q-6 -3 -8.5 -7.5t-2.5 -8.5v-3.5v-4.5h17v8v0v0h0.5t0.5 1q4 1 10.5 3.5
t14.5 5.5t16.5 6t14.5 5q11 3 12.5 10.5t1.5 11.5q0 7 -1 12.5t-3 10.5q-1 2 -2.5 6.5t-2.5 8.5v5l-4 4l-1.5 3t-3.5 10v6.5v1.5q0 1 0.5 2t0.5 2q1 5 0 15t-2 16q0 2 1 8t5 12q4 5 10.5 7.5t14.5 3.5h10q8 -1 14.5 -3.5t10.5 -7.5q4 -6 5 -12t1 -8q-1 -6 -2 -16t0 -15v-1v0
q0 -1 0.5 -1.5t0.5 -1.5l0.5 -1.5t-0.5 -6.5q-2 -7 -3.5 -10l-1.5 -3l-4 -4v-5q-1 -4 -2 -8.5t-3 -6.5q-2 -5 -4 -10.5t-2 -11.5q0 -5 2 -12.5t12 -10.5q7 -2 14.5 -4.5t15.5 -5.5t15 -5.5t12 -4.5q1 0 1.5 -1l0.5 -1v-7h17v4.5v3.5q0 4 -3 9t-10 8v0z" />
    <glyph glyph-name="uniE690" unicode="&#xe690;" horiz-adv-x="439" 
d="M210 307h-17v-96l53 -53l12 12l-48 48v89zM439 325l-119 119l-89 -90q-7 2 -14.5 2.5t-14.5 0.5q-30 0 -56 -11t-45 -31q-19 -19 -30.5 -45t-11.5 -55q0 -8 1 -15.5t2 -14.5l-62 -62l25 -96l94 -23l68 69q4 -1 7.5 -1h7.5q29 0 55 11t46 31q19 19 30 45t11 56v7v7l95 96
v0zM320 420l95 -95l-75 -76q-4 18 -12.5 33.5t-20.5 28.5q-12 12 -26.5 22t-31.5 16l71 71v0zM113 23l-75 18l-19 77l48 49q6 -17 16 -31.5t23 -26.5q13 -11 28.5 -19.5t32.5 -13.5l-54 -53v0zM202 89q-26 0 -49 9.5t-40 27.5q-17 17 -27 40t-10 49t10 48.5t27 40.5
q17 17 40 26.5t49 9.5t49 -9.5t40 -26.5q17 -18 27 -40.5t10 -48.5t-10 -49t-27 -40q-17 -18 -40 -27.5t-49 -9.5v0z" />
    <glyph glyph-name="uniE691" unicode="&#xe691;" horiz-adv-x="370" 
d="M50 253q0 -33 12.5 -62t34.5 -50q22 -22 51 -34.5t62 -12.5t62 12.5t51 34.5q21 21 33.5 50t12.5 62t-12.5 62.5t-33.5 50.5q-22 22 -51 34.5t-62 12.5t-62 -12.5t-51 -34.5q-22 -21 -34.5 -50.5t-12.5 -62.5v0zM210 396q29 0 55 -11t46 -31q19 -19 30.5 -45t11.5 -56
q0 -29 -11.5 -55t-30.5 -45q-20 -20 -46 -31t-55 -11q-30 0 -56 11t-45 31q-19 19 -30.5 45t-11.5 55q0 30 11.5 56t30.5 45q19 20 45 31t56 11v0zM305 66l8 -16l15 7l-23 46l-15 -7l7 -15q-10 -5 -20.5 -9t-21.5 -6q-11 -3 -22.5 -4.5t-22.5 -1.5q-40 0 -75 15.5t-62 41.5
q-26 26 -41 61t-15 75q0 28 7.5 53.5t20.5 47.5q14 23 33.5 41t43.5 30l8 -15l15 7l-23 46l-15 -7l8 -16q-27 -13 -48 -33t-36 -44t-23 -52t-8 -58q0 -42 16 -79.5t43 -65.5t64 -45.5t78 -18.5v-26q-14 0 -28 -2.5t-27 -7.5q-14 -4 -26 -10t-24 -13h35q9 4 18.5 7t19.5 5
t20 3.5t21 1.5q10 0 20 -1.5t20 -3.5t19.5 -5t18.5 -7h35q-11 7 -23.5 13t-26.5 10q-13 5 -26.5 7.5t-28.5 2.5v26q12 0 23 1.5t22 4.5t21.5 7t20.5 9v0z" />
    <glyph glyph-name="uniE692" unicode="&#xe692;" horiz-adv-x="454" 
d="M218 396l-123 -98h-95v-76v0v0v-75h96l122 -97v97v0v151v0v98v0v0zM201 163v0v-78l-100 78h-84v118h84l100 80v-63v-17v-118v0v0zM257 308q7 -9 12.5 -19t8.5 -20q4 -11 5.5 -22t1.5 -23q0 -11 -1.5 -22.5t-5.5 -22.5q-4 -10 -9.5 -20.5t-12.5 -19.5l14 -10q8 10 14 21.5
t10 23.5t6 24.5t2 25.5t-2 25.5t-6 24.5t-10 23t-13 21l-14 -10v0zM325 369l-13 -11q12 -14 21 -30t15 -33q7 -18 10 -36t3 -37q0 -18 -3 -36t-9 -34q-6 -17 -14.5 -33t-20.5 -30l13 -11q13 16 22.5 33t15.5 35t9.5 37t3.5 39t-3.5 40t-10.5 38q-7 19 -16.5 36.5t-22.5 32.5
v0zM377 424l-12 -11q17 -20 30.5 -42.5t22.5 -46.5t13.5 -49.5t4.5 -52.5q0 -26 -4.5 -51t-12.5 -49q-9 -24 -22 -46t-30 -41l13 -11q18 21 31.5 44t22.5 48q10 26 14.5 52.5t4.5 53.5q0 28 -5 55t-14 53q-10 26 -24 49.5t-33 44.5v0z" />
    <glyph glyph-name="uniE693" unicode="&#xe693;" horiz-adv-x="453" 
d="M0 128v-17.5v-16.5q0 -3 2.5 -8t10.5 -5h42h58h10.5h3.5h3h1h3v-10.5v-6.5q0 -5 3.5 -10.5t13.5 -5.5h52h71h13.5h4.5h3h5h13h72h52q9 0 12.5 5.5t3.5 10.5v19.5v22.5q0 6 -3 13t-13 11q-6 3 -17 7t-23 9q-13 4 -25.5 8.5t-23.5 7.5q-1 0 -1.5 1.5t-0.5 8.5q0 8 1 13.5
t2 9.5q3 6 5.5 14t3.5 17q4 3 7.5 10.5t6.5 21.5q2 11 1.5 16.5t-2.5 9.5v1.5v0.5q-1 3 0 14.5t3 23.5q1 7 -1.5 21.5t-13.5 27.5q-3 5 -8 9.5t-12 7.5q-7 4 -16 7t-20 3h-17q-12 0 -21 -3t-16 -7q-7 -3 -11.5 -7.5t-8.5 -9.5q-10 -13 -13 -27.5t-1 -21.5q2 -12 2.5 -23.5
t0.5 -14.5l-0.5 -0.5t-0.5 -1.5q-1 -4 -2 -9.5t2 -16.5q2 -14 6 -21.5t7 -10.5q1 -9 3.5 -17t5.5 -14q2 -5 4 -11t2 -12q0 -7 -0.5 -8t-1.5 -2q-5 -1 -9.5 -2.5t-9.5 -3.5q-6 2 -13 4.5t-13 4.5q-7 3 -13.5 5t-11.5 3q-2 1 -2 2v7t0.5 10.5t2.5 7.5q2 5 4 11.5t3 13.5
q2 3 5 9t6 17q1 9 0.5 13.5t-1.5 8.5v0.5v0.5q-1 2 0 11.5t2 18.5q1 6 -1 18t-11 23q-2 3 -6 6.5t-10 6.5q-5 3 -12.5 5.5t-16.5 2.5h-14q-9 0 -16.5 -2.5t-12.5 -5.5q-6 -3 -10 -6.5t-6 -6.5q-9 -11 -11 -23t-1 -18q1 -9 2 -18.5t0 -11.5v-0.5v-0.5q-2 -4 -2.5 -8.5
t1.5 -13.5q3 -11 6 -17t5 -9q1 -7 3 -13.5t4 -11.5q2 -4 3.5 -8.5t1.5 -9.5v-7t-2 -1q-8 -3 -18 -6t-20 -7q-10 -3 -19 -6.5t-14 -5.5q-8 -3 -12 -9t-4 -12v0zM151 106q0 1 2 4.5t7 5.5q7 3 17.5 7t23.5 8q12 4 24.5 8t21.5 7q11 3 13 11.5t2 14.5q0 9 -2.5 16.5t-5.5 13.5
q-2 5 -4 12t-3 14l-1 5l-3 4q-2 1 -4.5 6.5t-5.5 17.5q-2 9 -1.5 12t1.5 5v0v1l0.5 1l0.5 1v1v0q1 6 0 20.5t-3 24.5q-1 4 1 15t10 21q4 5 8.5 8.5t10.5 5.5q5 3 11.5 4.5t14.5 2.5h15q9 -1 16 -3t13 -5q5 -3 8.5 -6.5l6.5 -6.5q8 -10 10 -21t1 -15q-2 -10 -3 -24.5t0 -19.5
v-1v0q1 -1 1 -2t1 -2q0 -2 0.5 -5t-1.5 -12q-2 -12 -5 -17.5t-4 -6.5l-4 -4v-5q-1 -7 -3.5 -14t-4.5 -12q-2 -6 -3.5 -13t-1.5 -17q0 -7 2 -15t12 -11t23 -7.5t25 -8.5t22.5 -8t16.5 -7q4 -2 5 -4t1 -5v-42h-285v42v0zM17 128q0 1 1 2.5t4 2.5q6 3 14.5 6t18.5 7
q10 3 19.5 6t17.5 6q11 3 12.5 11t1.5 13q0 7 -2 13.5t-5 12.5q-1 3 -3 8.5t-2 10.5l-1 5l-3 4q-1 1 -3 5t-4 13q-1 7 -1 9v3v1h1v1.5v0.5v1h1q1 6 0 18.5t-3 18.5q0 3 1.5 11t7.5 16q2 4 5.5 6.5t7.5 4.5q5 2 9.5 3t10.5 2h12q14 -1 21.5 -6t11.5 -10q6 -8 7.5 -16t1.5 -11
q-2 -7 -3 -19t0 -18v0v0q1 -1 1 -2t1 -2v-3t-1 -9q-2 -9 -4 -13t-3 -5l-3 -4l-1 -5q0 -5 -2 -10.5t-4 -9.5q-2 -5 -3 -11t-1 -14q0 -6 1.5 -13.5t12.5 -11.5q6 -1 14 -4t16 -5q-13 -5 -25 -9.5t-19 -7.5q-10 -4 -15 -11.5t-5 -13.5v-4v-4h-117v30v0z" />
    <glyph glyph-name="uniE694" unicode="&#xe694;" horiz-adv-x="403" 
d="M201 425q-41 0 -78 -15.5t-64 -43.5q-27 -27 -43 -63.5t-16 -78.5t16 -78.5t43 -63.5q27 -28 64 -43.5t78 -15.5q42 0 78.5 15.5t64.5 43.5q27 27 43 63.5t16 78.5t-16 78.5t-43 63.5q-28 28 -64.5 43.5t-78.5 15.5v0zM91 76q4 2 9 3.5t10 3.5t9.5 3.5t9.5 2.5
q15 5 24.5 8.5t14.5 6.5t6.5 6.5t1.5 8.5v33l-14 2q-1 0 -14.5 2t-25.5 2q-7 0 -10.5 0.5t-7.5 2.5q5 10 9 21.5t8 24.5t7 25.5t4 24.5h1l1 22q1 13 6.5 25t14.5 20q9 9 21 13.5t25 4.5q14 0 25.5 -4.5t20.5 -13.5q9 -8 15 -20t6 -25l2 -22v0q2 -12 5 -24.5t7 -25.5
q3 -13 7.5 -24.5t8.5 -21.5q-3 -2 -7 -2.5t-10 -0.5q-12 0 -26 -2.5t-15 -3.5l-13 -3v-30q0 -5 1.5 -8.5t6.5 -6.5t15 -6.5t26 -9.5q4 -1 8.5 -3t8.5 -3q4 -2 8.5 -3.5t9.5 -3.5q-12 -8 -24.5 -14.5t-26.5 -11.5t-28.5 -7.5t-30.5 -2.5q-15 0 -30 2.5t-29 7.5t-27 11.5
t-24 15.5v0zM326 88q-26 10 -54.5 19.5t-28.5 11.5v10v7l13.5 2.5t24.5 2.5q6 0 10.5 0.5t9.5 2.5q4 1 8.5 4.5t9.5 9.5q-6 10 -12 26t-11 33q-5 18 -8 34.5t-3 28.5v0q-1 17 -8 31t-18 25t-26 17t-32 6q-16 0 -31 -6t-26 -17q-12 -11 -18.5 -25t-7.5 -31h-1q0 -12 -3 -28.5
t-7 -34.5q-5 -17 -11 -33t-12 -26q5 -6 9 -9.5t9 -4.5q4 -2 9 -2.5t11 -0.5q11 0 24 -2l13 -2v-7.5v-10.5q0 -2 -28.5 -11.5t-54.5 -18.5q-14 12 -25 27.5t-18 32.5q-8 17 -12 36t-4 39q0 38 14.5 71.5t39.5 58.5q25 26 58.5 40.5t71.5 14.5q39 0 72.5 -14.5t58.5 -40.5
q25 -25 39.5 -58.5t14.5 -71.5q0 -20 -4 -39t-12 -37q-8 -17 -19.5 -32.5t-24.5 -27.5v0z" />
    <glyph glyph-name="uniE695" unicode="&#xe695;" horiz-adv-x="420" 
d="M420 224q0 43 -16.5 81.5t-45.5 66.5q-28 29 -66.5 45.5t-81.5 16.5q-44 0 -82 -16.5t-67 -45.5q-28 -28 -44.5 -66.5t-16.5 -81.5t16.5 -81.5t44.5 -66.5q29 -29 67 -45.5t82 -16.5q43 0 81.5 16.5t66.5 45.5q29 28 45.5 66.5t16.5 81.5v0zM17 224q0 40 15 75t41 61
q27 27 62 42t75 15t75 -15t61 -42q26 -26 41.5 -61t15.5 -75t-15.5 -75t-41.5 -61q-26 -27 -61 -42t-75 -15t-75 15t-62 42q-26 26 -41 61t-15 75v0zM300 237l12 12l-102 102l-102 -102l12 -12l81 82v-204h17v204z" />
    <glyph glyph-name="uniE696" unicode="&#xe696;" horiz-adv-x="504" 
d="M302 224q0 31 -12 58.5t-32 48.5q-21 20 -48.5 32t-58.5 12t-58.5 -12t-48.5 -32q-20 -21 -32 -48.5t-12 -58.5t12 -58.5t32 -48.5q21 -20 48.5 -32t58.5 -12t58.5 12t48.5 32q20 21 32 48.5t12 58.5v0zM151 90q-28 0 -52.5 10.5t-42.5 28.5t-28.5 42.5t-10.5 52.5
t10.5 52.5t28.5 42.5t42.5 28.5t52.5 10.5t52.5 -10.5t42.5 -28.5t28.5 -42.5t10.5 -52.5t-10.5 -52.5t-28.5 -42.5t-42.5 -28.5t-52.5 -10.5v0zM352 375h-128q3 -2 7 -4t7 -4t6.5 -4t6.5 -5h101q28 0 52.5 -10.5t42.5 -28.5q19 -18 29.5 -42.5t10.5 -52.5t-10.5 -52.5
t-29.5 -42.5q-18 -18 -42.5 -28.5t-52.5 -10.5h-101q-3 -3 -6.5 -5t-6.5 -4t-7 -4t-7 -4h128q32 0 59.5 12t47.5 32q21 21 33 48.5t12 58.5t-12 58.5t-33 48.5q-20 20 -47.5 32t-59.5 12v0z" />
    <glyph glyph-name="uniE697" unicode="&#xe697;" horiz-adv-x="467" 
d="M217 190l250 -2l-14 14q-1 1 -72 40.5t-177 -35.5l-45 66q5 4 8.5 8.5t6.5 9.5q6 11 6.5 22.5t-2.5 22.5q-3 10 -10.5 19.5t-17.5 14.5q-11 6 -22.5 7t-22.5 -2q-11 -4 -20 -11t-15 -18t-7 -22.5t3 -22.5q3 -10 10.5 -19.5t17.5 -14.5q6 -4 12.5 -5.5t13.5 -1.5
q6 0 12.5 1t12.5 4l40 -58h-68q-1 7 -3.5 13.5t-6.5 12.5q-3 6 -8.5 10.5t-12.5 8.5q-10 6 -22 7t-22 -3q-11 -3 -20 -10.5t-15 -17.5q-6 -11 -7 -22.5t3 -22.5q3 -11 10 -20t18 -15q11 -5 22.5 -6t22.5 2t20 10.5t15 17.5q2 5 3.5 9.5t2.5 8.5h78q-1 -16 0 -30t4 -27
q2 -13 6 -24l8 -22h-28v-16h50v8h1q0 1 -0.5 1.5l-0.5 0.5v6h-4q-4 8 -7 17t-6 19t-4.5 21t-1.5 23l54 -80h-14v-16h50v16h-16l-69 103v0zM407 214q4 -2 8 -4.5t8 -4.5l-190 1q29 17 54.5 23t47.5 5t40 -6.5t32 -13.5v0zM102 282q-7 4 -12.5 10.5t-7.5 13.5q-3 8 -2 16.5
t5 15.5q4 8 10.5 13t14.5 8q7 2 15.5 1.5t16.5 -4.5q7 -5 12.5 -11.5t7.5 -13.5q2 -8 1.5 -16.5t-4.5 -15.5q-4 -8 -10.5 -13t-14.5 -8q-8 -2 -16 -1.5t-16 5.5v0zM96 180q-4 -7 -10.5 -12.5t-14.5 -7.5t-16 -1.5t-16 4.5t-13 10.5t-7 14.5q-3 8 -2 16t5 16q4 7 10.5 12.5
t14.5 7.5q7 3 15.5 2t16.5 -5q7 -4 12.5 -10.5t7.5 -14.5q2 -7 1.5 -15.5t-4.5 -16.5v0zM117 87h51v-16h-51v16v0zM319 87h50v-16h-50v16v0zM50 87h51v-16h-51v16v0zM386 87h50v-16h-50v16v0z" />
    <glyph glyph-name="uniE698" unicode="&#xe698;" horiz-adv-x="420" 
d="M210 300q-15 0 -28 -5.5t-23 -14.5t-16.5 -21t-7.5 -27h-18v-16h18q1 -15 7.5 -27t16.5 -21t23 -14.5t28 -5.5t29 6t24 17q10 10 16 23.5t6 29.5t-6 29.5t-16 23.5q-10 11 -24 17t-29 6v0zM210 165q-11 0 -21 4t-18 11t-13 16t-6 20h58v16h-58q1 11 6 20t13 16t18 11
t21 4q12 0 22.5 -5t18.5 -12q8 -8 13 -19t5 -23t-5 -23t-13 -19q-8 -7 -18.5 -12t-22.5 -5v0zM50 147v51h-16v-67h16v16zM50 266v50h-16v-67h16v17zM67 367v-286h285v286h-285v0zM336 98h-252v252h252v-252v0v0zM0 417v-386h420v386h-420v0zM403 48h-386v352h386v-352v0v0z
" />
    </font>
</defs>
</svg>
